<mxfile host="65bd71144e">
    <diagram id="6nCFtIDsaKFN-WAsG59c" name="Page-1">
        <mxGraphModel dx="1248" dy="813" grid="1" gridSize="10" guides="1" tooltips="1" connect="1" arrows="1" fold="1" page="1" pageScale="1" pageWidth="1920" pageHeight="1200" math="0" shadow="0">
            <root>
                <mxCell id="0"/>
                <mxCell id="1" parent="0"/>
                <mxCell id="7" value="" style="shape=image;verticalLabelPosition=bottom;labelBackgroundColor=#ffffff;verticalAlign=top;aspect=fixed;imageAspect=0;image=data:image/png,iVBORw0KGgoAAAANSUhEUgAAAosAAAEOCAIAAABuHcq2AAAAA3NCSVQICAjb4U/gAAAAEHRFWHRTb2Z0d2FyZQBTaHV0dGVyY4LQCQAAIABJREFUeNrsnWdcVEfbxq/DLlvovUjvAhZAAUGxF2yxgiI27LHFbmIQjRp71MRobIgNVIgNu9gCCipSVEClI4j0DrvL7nLeDyxVBYKamPeZ/48P7Ckzc6Zdc98z5wxF0zQIBAKBQCB8ZUiRLCAQCAQCgSg0gUAgEAgEotAEAoFAIBCFJhAIBAKBQBSaQCAQCASi0AQCgUAgEIhCEwgEAoFAIApNIBAIBAJRaAKBQCAQCF9UoYtOVFM2PMqGR/Xh3f5/n0O8k3g1F6KvMm35L3puDtxZVtPiNU/7bDhAbThAbWztyi+C6OKkDdS6xPeP3/TaQOl6U7re1JJn/6nKsPArrQwEAoEoNACVqSw6llu1lPGvpDj+sj/1x8OXdT/5T65RG4PPi7/Qt0tLkXsOigvAbKQt+Unrjp9R33yA2nxU5tDl2c8L689kxISO+vUoteEQtf/igsSSum49efJPB6xe8psH/eQyteEAdSFNcuLNY8sNBxo/2udBvftfPvPob3s6f67iKokdYrTDPeETZYo5xM+Hzlp/fwT701Pk1YMnGTI2/uvDC//s1YHrDm4W8iJJx0EgEP4BmCQLWkIQjEoOtDo3sqLerj7x1y592+Bp+pYMYUpW+tHCckAVQE3akyGXk7Rd+r6wlMuNfTTwz2vasyZ6a7Q4BuJwkZ54R2w4nEHFP0tLluOSLG8HW4+zFgkA4OaP1Wu4iPJmAeCwYfT5o2JDpRuyjkPTHgyS8QQC4V+1oYXpNcs8eVQ3HtWdR03m/ZnXips08nC17QAeZcujHHky8/n3ShuuTw4UGvfmUbY8yplHLeU3+D1zajZPqotiKM8n8lOMs+rnEXcHSqzYy6vqrVgAvGTPzcfmPk/aevwMtfkAtf2kV1IVAKDizo3LNtsPU5uPUn53juVVN7Vz70LaGRyq4ci71N+rVY8Mtxupo26q1WFId+ez/QxrDei/HiW91u56tJ9JJy3NAUOct8uUr43Kas0m0/HRKPwttRp0jn8qa7GFXP2Zysz4eQdPUBsOULsCRtxLf9dQJPmnz5xV33yA2nVuVWJh48CKkiKnSm4JdI3ILPnslSUjso+hN9Xpz1vC0qDB6yldb8r80PbyGgCg8/yX+XbrtpEy8qbs9/bZ+7LJk+cm75z8C2W0jnI5tDKiDeni5fovO6jfeR1lvJHyOH84WdDy5ZoWDLsuDLsuDB1pQB6WXRh2XRhWFoza8U6Ct4By5904XM115lG2PMqdFwvglZiy5f1UV58fruRTk3m8RtVYUlcH8qbfFjYtsgFACio+8BSlOTnZJTzSpxAIhH9EoUtoTw/BbgrnT7PenWPf6CGVnNuKQr8tpacsYcZdZKedYK3NpPsvE0g0JL1m6GaR3FxGyg12+h+sQ9ZSVXW33Pap/rFKEkXEt0yNT3iYzLCrXR9VDh46ImOxe6w9588/b20sapRgWnjo/vMip8HFq2blT+09UYEJIDnk+sAXYo/x4zLmDw3g5nr5h95tcJgLUJkPjnXTDprVSVh6PqO0edx0WWQhH1oaEruNUrbXlEZOYVorSWYN7ap+KzatKj1pt4rRRIW64ihPXRQQfrBDt2ffeaYNNRZGhjhHFteOAx5euTkpX2nnNI9M986i2ORwseQOcebjvheSyu37JC72TP3GQjk8ZEDM59ZoA/u/0jfRceMHSyu63VpPZ22iE+eskpcCAH5lPtd49d4ZKY+WJ+6yVfY7q3ciry5nxAh5dnDwN6l/fXt3gHjnzMBf8luuRaUXZ/pOTtfefnpBzn2vc1pZc2ZevSugEX/ARZpBNUNh0C95bZhcz8DQR+LrF9j8e5zwWUyZFq9N3Vvt4CeevpaZcoP9eBrj+GrRmiRxI6+TNdgUyuLeqwBRW+yMdEbujCWdCoFA+Ey05OV+d0IYROGyL2cEmwKgtZA9pLXgRq9omFb8fhZzzWbRQ+AbADk1yRTWD2Iaa0hBE7O7NrgIswtoGFGu5gwuoGUg1aMtqc5/YbXhRcNPqgMACN/ueVLsPGziKnMZAPr2vXbFB4x5lre2n5bkKpEYnftsN1cBAC2DIQDo/ID4IvQat9pYBYD+8G5Xfgvdllrd34xdaxdCJAZHvUnU2l1+tX/rEnSGUlIfZ6g5uJPVVGMVDgDw8yppcFj1GSvPYaGgvFWRlDE1mXs3fvWTcqtOwwwq0msP8pNe+Ul1ODfMqguDgmKPXcnpnZ4mvLTvaSl8F5DI6zLMeZqOPKC42SVt96XasUJ1yP34F5YDn9jpcwAodd3RJVEvNu2dra32P1OPuEZLfq5zKmv2+mlQxKX7mbypGhKvva3z1almRoDR6uELLh1dcb1g+dSPj8SePVn1RGl9xIiJ6lIAxm4e5NHl4vpoUX8nD/8XTkX8JgsOajiKBhptWkvht5vdV0EKgNNg6Zav3OgvNvJm+AySBmA8hXX8Am/aFdHmhlUXimAwIc4kfQeBQPg3FTo+rgbGGMCm2h5cwU3h1N2i67kALQm+EjRAwYaxWV24ZqTgTCf0cZbyGs9yVJQEO2ICE1tFMqN5EztSvYYzZrhItz4Zq2wa7N7ViKYA8F+E2j8CAFQUvaysDg860SS5qg1eR5rJGmOo3CQcfunrSqmBWvKSn3IqFrI1AQXlqFVoCGrT3kyLeg0dK3DJC0/Ovp3y5pczgXMt+2aP6dhuIRRz9Cdoh/VPVjgyUhFRkoNZuWVQMrVlSOI20VFAXMlLMW1ZUZIi4DiqSoxAjrpqF0YpANClTwqFSLvGjWmcS5o5wD+k0KiM3h+8+FTKw3d81HqF+/CrAC4AigFTdXNJ5qn2Mpbal1AMfFShBYn5Sfzs9bY+6xsfzRMCivodu+q3L3XaGKjQtkWR6TUP+EjzFlPejfzVBk3XIUoxIHzP8U5125rN20p6FAKB8M8o9N8mvabHGlHKTKnEmSwzNoUbIspbKPFmc6gfbnHHhopCIsVHj9cc9OUH3mC7KUgBUJkgLejDuBMiunWvZuFi0cLZNfT81tb3MrmmmuqWtSL7hoO611/ETNnvZnnu+ZhRRUnJfuBxW1jwowApQFz2/gmWnEZfG42+NjYb0sI7now+0sd8rTJHQ5YCv34aW1TOr4acvFIbisClb9/DVqxxMlR1i9exJeMMyDCp+tJrmLimGBg6jrZX/leqkSDoUre9BdP3z7rUT0sVeLZ6t00LU/Ctjvk0rC5FT/qm+YDxgIvNggeipj5t+YE7k28ub9WMZqGVYV+jhfa5FNxPSJ/t/LGmIYBYCIY66TsIBMKXpqWuzbqTFFJxR/DhF5m4HApCVDU+FCtOYSJgPsuMTQF4l9h8gtCiN3PhcnZ0MKdbFfY9b5jbY2lJDZ3C2n2UEzVACrdqEtv3KHIqndiCX9+fIW4BjpyFrPB2TrnkZ0XR60opR7U6k5rSAJsDQUv+TCkleWOIM/k0KAV7VQ5y8iQTz3RZZK4QWqptWU7MVDeYZa3dWMt1VRVQkhtTNyOe8rYMSkrGDApySqYM/stSydolOr9CMg9NKTqoSCE5u+TjIzE5iHgfXITHL83JyWnmPW4RBgVRZdN3x149fQsnx/39tFQBQJCWWd5wjhYjOV9SprzCB6k1MFFqNEBkQiBqvLyKba5uUZp76v23uaw9/F9ExzQl6smh6Rrt+uoOh5IHeHVPnV1Qd1yLGsdGYKT4ozfSmagWg2P2/pnSnJx3OWSlGIFA+EcUWnuqtBuNkfP5NxPFORk1f52s/u15o36zqxR42H6u+l1ujaR/7yiFavhHigEIX4lnnxY3Fu+p+wRhieJ3uTWRQcIoBgbqS6K+uFPwR4gwNbcm97X4SHQNjCi99j2KtM4SB1XcC5nz/F1SSXlKVvqpGzc3vxG3dAulNclaBQ8e/JZa9KYk9/TVqAAZfR99ViMTzRqCh2gcxrvnk07c2RefEZlbnJKVsvVS7E15jVGaUgCzTw9j83dxU8LTkwsKwu6EraqS39hNt+HGkvy4nIL6v5wWV6xzLDt61WSPu/b6eWl5+stHy16Wo7uFJQBp7Rnm3FsPXrwS0xAWnniSUj/IGdyro03a4wH3Xj8vLc/Myb71KGzqk+xGwxd1e3aVz+OMxMqqXH7TuG+vstI2VP0zq635rKhkqiS4diP1Lb9BWY3MVBCfcjW/BhCVXL7yY3hTd0BM+NTjSam5Bfe2Xd0n6LBzqFr9GZtemnj07Nf4wne55ZLQujqsc+QFLQ7cH56b9ib/2YOYbQsvHyuvqfVy2zTFrqORavtqixY1jo1tV0Q8QBQr/iGRrlfutZ4M7K+Z+Gd1am7Nq8ciPx/+yrBGy7mF0RCyofCeQtNRW+yMOriRlWIEAuGz0aKXW4nyP83W/VHg6lENCuiIoCGNru/IeDKD4bBZ3EEshitFb+WgI+PFfIb9d0IKQqjjsKfU1WN1ZjQHlfdreh+vhhBQhddPDG99iXtZFZiwUVRdLgIDXAfq0Xp2u18K1nMZ/oz5YO296+al1ZCT66Zr4K3YikPVtN/Q24J7y/889x2fhq6hn2ffYY19sPJjkLsOlSVQqDP7lDSGK2T+fufOwpJqMDmquoZ+ns7DGRQAKSOnWyPpxaF3zW5XA5zeY0Y3fhn6ZcjVRm9VS4+ZMt2vhWTJG++dxGNde9L11ypwFPrYD8q2r1U1ZrcRQ/0v3Xf45Xk5R26KhU6XbIkTXsrI+Y6b9Jq7j7tGVIHJ1dDSXtpLoVGEWsu+6RQXfNsiUgztzgmze1rWK04Jr4pS7K6l1NZcpvTWbLR95hOgu18EGf1tUbNWyUspeI4+l3B22oCf3eU5Kp27bR2rMju3/noGBnUdHxJssr4YuvorfN2Xqzdki+K44f73zkwesfsHEUP95Pd5fbmAoofvTNaGq95z9y+oAHTUnPs57mdRn7nic6idPzDPbBPJnOLBEr/YU8srJCJtvIj1hFM94Texyc9icKFkib0GjQaypbfBHgouRfoOAoHwpaFomia50BIFC1BmD+Ppf+MWYeGJ45en0cYRU116sL/yrlzw1NPG/s2kmLC1NqSsW0Uch5Q10DrRMGIjEAiEf8eGJgBQ/R50OER/J6ukVad6DquJLlH6+nOXTr7yqNri13lEntuEKB8qq4k8EwgEYkMTCAQCgfC/C9l9kkAgEAgEotAEAoFAIBDaxkdnSl+9fNLR0vLLJ0CelAGBQCAQCMSGJhAIBAKBKDSBQCAQCIT/ukInrttDeT4s/NhpOnOlzXrqUvnXk3HJ189QJ5+XfJnAS59cpjYcoDYcoPbeC/9AbiQjcSjiBiPOC82+TcZL9tx8ck62+FNTwPNF3GDEDUbKsX8rhwuOj12zNaiyLZdmndw32WbdlK4+UydcL6hp4bJDMyY2v0Ach8QxKOd/+JZX4XYmv32f1ab8pJ88HNV3E6XrTZkf9atu1ysSdOZKm7WUrjel6/1V1fb/Ri/xz1PbLwUW/b/IXQEyxiHnOalmXxVfyxu7cvYdx+tqyHyx8Csz45dfizqYWwU5heG2zof7GbZh06fSQwf+nNt1LO30ge0oZHUNpqgqc75MahUdRtIO4D+5xn388Yu0T0JV873yVOxvrS8j1/bPpHzkGbkz0Wkmsifiy31nOuvkvu9/yaMalEyo6Tl35yqD+hw27dlV20S6LUHpTllwagqyTh7yufq3k1H8G6RcIf/pJVl5dtudYJsRycGWyixplfZ9BI3S2xG7cQedudLWd+eHzj9bvcMmv3fBUce2fOs0eoWg2+0arGTQniwAOCukdoiOPOXMxH/1g2hfupf4Cik+VK2y/wMDRKm1DPE41meNig2NYUjbDVU/SINAFLoJHUa4Bn250HlpqwLCDho7ho7WVXiXsOhaiIOSW6btJ313Qruz04mvsDyl1WeO6vOfqX2Ukt7cfcP1JN9/paVV1RoPEnoun/DFbaBkFGVBdePnCKosPqsGEwxNFLhfVyb7iWM98f/jizRftpf4KlF2l05wZPAoMF/VdN0iGrKRsVmfAUDB4Au4PzkjwTmPwkRomRNpJAotIeOX3w135wBAn6EF/j0bGQeV4bvOz/RLfiWUs5/fuXPzcb+gNKe4QllTpw2f1SyNe7m/RvPIcBsXGQqaPbcmpfd8FP/Stqclnb1i+9VHnS110lKuV4rLtYwvjOo9WlEKdP6OX8+vKqMBIOQsFQJAarDHtJtmbABZIUF6EYUAYORcPKVLI50XZcSELw5NDi4VQUljvmvffeZKAPDuaVe/1MEDtF8/Sr1cKYaRbYy7jQ2DAlCUFPldaOL13KpCMNR1Dba7ukzXaO+4WJg2a/NNXwqA7OxZkw51qNtVk87x3nUlwtaxc9rzX3OroGxwdEJfLxVWy8/4j8FV76ht0HwD0JKAibuvvwRQ1cl7/Wo32UanqmOPXQzyf/0mv0bJWN915djhTootRyBIjDq07l5McoWSlW0/s+b7e1aeg1AFCk1dEbxs34VBq+7mF6l3mD1Tq/GZorA73/4cGfi6AmqaznNcg2ebqQKgMxfaHdqXTwPAsl3UMkDG+GiclxeLQkbCEu+752PzMysAY90ZK0f6umpBcovv5a2rM4ZwASA4kFov+sCGm414vGRLjz9rXf6X1XQvA8DMqfRPrfWkarCrxPoHwou9mppFOTU//1Dt/ZwGBThQd7ew+ilKSSy2QPG2oVKrz9WgGqxJUtnL2JImyaePrRZ4RdAQAmY4tIk125zRrjIXXJy0bQyr89KqlMOveBXqOis2ue9wqttGlRc3xvIyvXuY1bl7Wx8W0AqKA/bMu91P/sO9BP1qksXltz24sY+Ly6b2/T0hfGFUjeaG6Tnu2oAg2jd49amUO+kVtIKiSV/Hwxtd+ilI+orEdXsskruEDChcvS8+uoiG84AYf2fBkt098p0z/XtKtrtJj+jW/4HJlaWBVm3rJHm5+6ccWcB2iT3q0pVNgZfr/+PFH0KyMyuZcLQ+tHH4bFM26LzdvfcvmzaHntVBUp9PHWf/zr38l9uIj/VjSpSlEgMAqmgAFhYMO7NG2c6n+/Xgy3gzLC6IdycALAz4mXl7oPSVafyRKqB3c2rLururwOSkZENVYXrN6h8Fu18DANeBurub3fBlYkoD8hooDoLWj0QavxL+/Xlog+UL6axNr2eqNe+mgy71PFzQdcfstFtu8549P5rfdMY1/uAA/Q663mFtiSI5qwBKGnYytRWRaW2ojpLCKMnejuKHKZUTp08tW+Vxl5s15vyzNACU+solc2kfj4Ma0hg0gfaZR/vMqZcu3UFutM+8JPvmJnhNWsTgyxmVLoMyFrs/tpU++ee1JXmSKU9pUdHON4rbF06lF/X9NjvKNloyf11eIdK3dbo2d0Lu/BHHVAq9/EPvitv7iTdpoyPr5tErB076QH8ivhuf23e8O73K44J89oybSSWtPePfNB+jvu/ApZrDNr5S3b5HUZp05qeTzxYNNJFulhmv9xz640/BwI3zdl39bp4b59oqv4c5LYZUnXV06fl0rd4/nl++aDwdei1P1DRE3iswjJv69ESPf/CflaS+/cqyDF9nUcDzmLrui358y2n28xKPUfGhyxN32ar/cUYtMB8AKL3fYzbSmQu8dZjYtYrO2kQnzvCq9XKXlFfYO/qeXpDyaNHTGfI3F5x2TxC1L08c9/xAZ22K9VTE4JEFWZvorE218iw64v5+1lMOGyVbbMlhyzipS36iZnO3BxcIvIvp86dZ6b6saa/o/ssEDVubFWI1FwXh3PJ90tUna+a/kCQ4yEvglUEHHJF+d5F9VouaM7v6rqC9dZUW40Fa7vfzyp//8M6LvXN+4B/5jRYH0PxLv4S/mzmx4OX68sCRCzVYLfQSlKDiqcvw2LXGOHD/yKhJCSu1cw9HhgOAKLuMPXyVW1zo8vSgkfNTwvqvjm6SCS8ej4/U2XV9DT92acQMHRkwHT06aT1+5luXkoxzUdHW1mvaLM9+jeUZpRdn+k5O195+ekHOfa9zWllzZl69K6BBaXhO1EZgTN0GaJXnL2RgiM0INhXmafZ+MVIrQtoS+bW94iIvZmEEp/QEa5FGixZLCe3pIditR4UGsNJ9Wd9m0k5LBU2yhWMM4UsIiTISG7oVKm+cScaQUX6uulxghk+/43cuhbYzKFF+hQAcmXprSEGWBVFVSSUteRm7e7cxshTA7de3Y8/DL08VdV2r0o6Bi+jR09REI9v7dnragL5Lr53xZ+dGZe0Zqg+gBrKze1p3ZFCQ15+sL/1HRiHslQEY2Dr9XJeoYX26jn4eFVxI99f4AtOE3buNVpQGpF2ttPFXXgKsnT+ns7rT8rsxE/lNFlvRHI6GUWvTWXRJ4ia7dXW/5GfeWNG3heUB5UlXruQ7bJjTrwcLgLrHN4NubL57u7Tn5I+a0fxHETEFatNOOpioAHqjRz94cTC9qYKXg6nTtKtN+/VKhcpm15nWKoDKHwsT/H6o3TtacOvAo8TRE2KnWXAB6PX61TP2UmBClnsf3RYesKvjka51/08avOzY3uVPi2Cl8Tkb8Lidsd3XNFstwFI2MAJeAgDM3KTt3AS/59XU5zPSa1amYvgh6THmDAB+q6WPfy88m1ezvHYrNhbOzGSpAnBkLpcV/vK85mxnIFbs/opef5PtoSEFwH07+4Qzf0OkqH+v9s5YOjr+ZicHQMuz94qdvvPvlXzrriKpTRBj4ii/floAYNFxdIvB1LCVZvfUM5I178kuHdRPx7LQwHhXZgZoZ8iOWFrvklBeNtds+bqUh+jW4KVg6OzZ3qOPvBTA6jFACQAcuq3SfrzsUsG6WRqg885fLMBs97bMDiiV5u6fcr6RPAPPnqx6orQ+YsREdSkAYzcP8uhycX20qL+TtMY4u16/3d+cMCTQiomMhP0xXLeNxgB67Lz6amVV03JkM7UN25SZo6SODZQGAAvGqBYvLA4UBskiZiun9rl++VF61wJhcDXtVb9sgmUIREFIQ5rs3kYUuqW+u+zpWyGGakvm9PTVOiszmyi09eKn1Ys/R0wMJ6U6D5uSqgVd+aBQCJV2mJL85EIRTFTrFEaxkyobBSUl0FcCxEyZLpLVW0w2kwG+iA9wAFF+6sZrT/a/LSmQGCocT/GX+Ew6w0lJkpEcDgOi6s+99pSt3rGjenukvfE8NIutptVilch5k1mK2G9/vt+og9btVAJ8VKFL3xWLFHW0685rGygzM5p28GJINS3r3ILXNXIDOkk27mSba5ujAADoogcJQoSclDnV6GJL/TdASwpd8tZ/w5VNIdmviusW+5SJPnPeK+tbKOu3NPthIPWTJTXSX7iqQ92481VNOTDMQvKTspCSB+5l1Cm0PPTq3J6q0oCABsB7XQMa6wcL1jf2v+W2t65SDOipSTzVlIKVDoX4YkCi0DTFdunW5tpEMWXYFNhMrjSTywHAlqdF/GqAheKQO/N+iQx8XSGxCJXMK0GjfpWcicFA+aYDcUrDc6L2sktPY2cNs3n+bGthk43MP464ZOeZBZVizNQyr8s3QWJ+Ej97va1P4+xCnhCQhpbVgk7XPc6m4ifzvCvRYdbWMVZMANLa5hba7czOPg5ttSiintagALY2jUYCFN6U0Ki3Cig2IEYNUUai0K3BpRlomJNlctuvXEx1OTZyqnKA2iZQVlkNJktJ9r1BokgsEH2px6GZjaMTAwCdv9v/7gYdh0ffWTrKSoOX7Ln7ASX6D1YiOup7nV7b3jV7YYlldLk8dUQr0+ofnIduoSgVpv65fJDB30kci64381jvfcCOwQa/rMWxR5OrsXk+PbXtFrDo8fqAyXEG/hc8xpgqcOmiPwbvnf9hmWl/qYuOuMvPDmr+rpj9hpgna+t/DZ3PxCrh/VmfZhWxcekx95vPVmka1ifzqWZrlZnyn75na0bkqAXhsSsnJk41NWNTuHWeWlpR1dRAfX9Fn8Y4u157HxxPGEAFxOX1cJ6u3jblcx7yfEbJsOmXhrp+e79+Ql3D6iMLC2THTDfFz7FX16i+uZiDCWNqzdkwT7PeAcnNr11+i945qNX45VrLrtLGPzqh6hT3o6sZRWUAm2x5SBS61aGxgrWuFFJKAA0AKC2JK27WiwlycopruJodFFtvzKa6aniVF1VN27IoQBSfng8l024MCjQAcURWCSy1ACC/8AklO0VV+mNdSYtw9FSZyCl8Bx1tACiNKxTAQKml9eIVReFV7Nk9rR1lGQCQn/dUBIcmhcOASMz7J7L7096fbreX++/FoqWvxfrrxbPKQQayH7xAmgVUVzWuJoramsyS7AI+9GQBID+pvNk8NFcbJYmoabQeQ1PNhlt5O1OI2gnIN8WJkthVuplI4X5a4VQN1TYmmC4Lj6rEtL6TTBUAgF/49G194pgcNt6UCgEugLJcXu0/jc9CIPxwg206imzVyw2A4cjczBauuFlXyh2l5IFrr2vm20sBoF/XlAP9WlwbzLWQQjX8X4i+6fyRHoOXm1PKUtRSbtNCdlqM5PxEwBwAL+9pmhSmKn/mGv0sLUzOJGC2qRkoAHlJ+aDakDQtqwXW1z1OhwtvVRputWpbQTMwtGNnF4Urk1NslgQH3Z7oJi/FNle3KI07lSD65kPT2OyB9jO+P3PkADs+S33nKImZ/kle7vc7IzYgqPuRQydTsAMAWHWXwjHxHQH90YVpgkRIaYFFXNxfC1/tN8Vkx0w0xfUHu7OqAcGz3Q9uNBOR+IMj9DvobGrTSjHFTpbzpXJnX4oNy82PjQv/Pqlat4d1wzfHYx9tSy3KLMg6eOtlkp755IZJaK6eIoVX6bECoUDUqpXD7GNjbJ72bH505puSkidhD37Ik1vStUW3LUfRmi04lpHPB8DLO343MbHZeW1V2/J3RxLyciuqSr6Ubf23nvGj5pV6x442TbHt2FGH/XnbubzZmDEqcbtOBN16m/+2LD0y+frmk7fiG1lAZjrc7OSbf+WV5JdVCgCA06PUd9y7AAAgAElEQVSbrVruzcA3QhqCjJirD5oPd+T6gs4Av5Fsc43mDJJ9cyjimYAGL3f/oRf1zzjqO3vLe7ds98Y8zSx+8yIt+Gjw4BNpLQ4pZC1NWXiYnAgAlY+23T5aVhcRpTLIUgrX4xIBlKRuOJnZ9EaVnlYsnH0UmlmWXcprnGYjMwUkvD6RVcXn1xWWsr6FTXOsDJor5dzJjIS4uh+GUjt0cPVn4YVEccYzsdc2IawxQaPFrsCGcbwjFbhUuC9MmJZRExsq2jSPf6yswRn6YoWrtkmf75PaPNSLCR9+IintTc69n0KOsvT39/vcW26bq1uU5gZEVwIQv45eciSrrd3OdFOcurOPMt7aV+5vmTpdvx/nzU50XxWTBaCrwzpHXtDiwP3huWlv8p89iNm28PKx8ppGdYxzcU9kklO3ejNdWtv8vXK07KTZzjf3rLpLIZYOKqsBcPkPIerqXQd3aTcaI+fzLySK0zJq7gdVe3zPb9LtVCRBpj/51CSxoeuH3nFjO565IGnX19V0r4OhOOzC0qt2TLbbuIeZgTNGbVtNcQz7mY3SyL3Ufhky2j7JRXwtqvfBx5BTGO406EnDy9CMAd30X16/pF8ohKH5hVF2Ro1MkUF9necGP7Hd9rThTSRe8uTtt/0l0hOuvCG8/u0mKTOnWyPpmaEhBldEUNKYOX7Ilg4t+niltdaM7ZocfI0bwVDmKHo4Wk7KftnkAu0ux/rlj7tyXosP2A+jh7Y03Zh8/YxZZN0nzo4cPoz3Xwb7sBP4A8/471J++/TiVa9EYgDS2LR9yiZQGubrb3gaM2CxZP5ipYtBe05cfyeUVlIwsOs8stFMIWU3aJZ7ru/3+27zBUbffrdhnjZYujO2jzy07uzCE7SslqFdd43UN02LwBVyfih+CJle9S3CccvUI8v/7GX/sEJByW2IqXmsZK0r5Tj0wQnWtz/ftN9VAbassq3h4sUtW35s1y3jly4Otujyl7oCx2Roj2VWubvqTg35ftT0uZctuvylbmK4c7QJTja9cf3ob+cE93EKh4z+tqhZq+pmTBU8h/5+P2iRy+Zlwra9bVWHiru0+15xYF1PPfcIu3CZYKxHNSigK+7uYuu2FsJUPzbbRzBxuQhCERRg60T5NYzABCUlfMiYWiq2bUxGMTDcxv3yJeN1JTA2XrF/7Lct+5M/1kvYfvyWji4X1uROnr2bojjqero75lid/r1NC5TZA+1ncF8eHWzzzd8dX3I7/LS3z43R18wv6VeNUvfwncnacNV77v4FFYCOmnM/x/0NhinT0aOTwZ+PMkZZqX6ZNtRhqvSBezXu/QVQgqeHlOnjuoJXovxPs3V/rCt6dYwaL9WQBlE4KsTQHUZ08SvyJtP0hyd4/yf2tqKzV2y/+mLs1H9flv5espORtAiqxz7wTbHPS/ZE8FxhMv3/cwuoOoI3kTA9SObePqFCxq837fXT2EtVO3q3wegTXJy0bYzZxLYPL/5RcmKG9L4hfWbpFTvOl4tEcDmQ48M/+niK11flTy5agKIuMJ1LajSxoQmfzLupyDWE+ZeRFp4vUgNB0/h//4lFmSnQpCHkg8khdaqdpD4Iq7LfubIX97/9GKLS3JKIn+7dMuwS8+Xkmc8vz327be9LDJk48eua7hWAtoHuFFKdiUITPg3KFObXv2wU3Jmwnvm/kZtsKM8mdeqTMJl7591/3/B6HGIy7mGhkfHmAwO/3EdSM/YdMdyTD5duV9aYcb+2hqBKGsLX19n/T3u5CQQCoQXovHM/ht/9kK2rP3bg6m5yJIcIRKEJBAKBQPifgyyrJxAIBAKBKDSBQCAQCASi0AQCgUAgEIUmEAgEAoFAFPpfJ+E2tePmFZIPBAKBQCAKTSAQCATC/xT/9ttWdMlCO98IL1eH2w8OvC6HnsXuA+OWmLIBICNhiffd87H5mRWAse6MlSN9XbWASr/hO1fJ66vFp7/q7HjIImv1sbfFo0Zl7rHTBQBBtG/wYt/XD98JYWww3fsbv36Nd3gVlOYUVyhrtm1HB1FGTPji0OTgUhHkZJzM7PxHWhkBeH6Tuth0vwTtzgmze0pyKvE+da7ylLvurRvPThTyoax7ZObQmTJkoxgCgUAg/CdtaHF08JuBvovpZ8sCNNKXbq7bqaCkvMLe0ff0gpRHi57OkL+54LR7gggABXGBsvVF/8G9I8Pn8Ho8Ptvb9sYDvywxgIx9x7odLB+yySvl0aKnM2Ruzg9Yk9Jos534gwP0O+h6t2k7LBS/nHM9lXJxTV82OXNSn8UaTMneil2G0D7z6PGm4Bpd9plH+8yj6+W5FmHO5NCCYW5u/DXTUoZaWdOkjhEIBALhv6rQwMS+49RZ4CiOHWOIhLcxtQe7Oh5ZbD+ok4axplq3SYOXGZcFPS0CQIMBJ0OLzsa9VZjoZ2Zmb+7ErXyUR4NO23Ek33Cj29r+Osaaat08R+6yKtly/W07k1Rc/kgsN9BUy0BORldLb6KjeZv9CYwpA3pN0OCymWxjU8MessSAJhAIBEJ7+Bq+y82AnuTLYmw2E9X8KokN/dZ/w5VNIdmviuvs4LK6PXE5HICvwoI6GwC4HKpcQCMj50UxP33mtiaSaFbR8L/14qfVi9uaKD2zHeov5x44c8FQy8lQ183arGsbtVZaZbAOi1QsAoFAIPw/UGh8aN9j0eP1AZPjDPwveIwxVeDSRX8M3ju/tXAqpBTdbi0NtPocDyWtPmfelIHpbx6mZF2LCLV5mHZu/uCxbZrAZsiQakUgEAiET+ZrXctNl4VHVWJi30mmClwA/MKnb0Wt3KKp5aRYWesJ/wiCnJyc7NK2zwyzjA1Npwzoe3qOy6Sqt6eya5oOIUTVYjLJTCAQCIT/NYWmZC1NWXiYnAgAlY+23T5a1pocco1WztLGljOeF9NTc4sTI1+e/Ml/RYSw4YL4gyP0O+hsattKscz4FeGJTwrL8ipKnsSmnZdSdFZtZEArK9kKi86klApEIlKHCAQCgfAl+Gr3h2a7bhm/dHGwRZe/1BU4JkN7LLPK3dXaPQYLpkdxghdvP2Xyjg9VRatuHb/Xa+8QhMMQvYwe9KC8jE9DTWP+uAErFBoFpW39m0OO18UzHH7Tt60IBAKBQPhctirZfZJAIBAIhK8Q8k0xAoFAIBCIQhMIBAKBQCAKTSAQCAQCUWgCgUAgEAhEoQkEAoFAIApNIBAIBAKBKDSBQCAQCASi0AQCgUAgEIX+erkZRNkFnMb/649sJ9ymdty8QsqaQCAQiEITCAQCgUD4FL6Cr37mpOxccWXzk/xiig0T3bWbPDbYcWrPFYXd+fbnyMDXFVDTdJ7jGjzbTFVylyDaN3ix7+uH74TQ0eq/yPXKBCMuACBx3R6L5C4hAwpX74uPLqLhPCDGv7cNIMqI9/kxZMuTAkjJGg3pE7DdqQebQmAAtSyhSXJsnWMuD7NpIb105kI73wgvV4fbDw68Loeexe4D45aYsgEgI2GJ993zsfmZFYCx7oyVI31dtYBKv+E7V8nrq8Wnv+rseMgia/Wxt8WjRmXusdNt9iDGBtO9v/Hrp9YoMkFpTnGFsqZOm3a9FGXEhC8OTQ4uFUFOxsnMzn+klRGA5zepi2lNLmz8IfHE+9S5ylPuurduPDtRyIey7pGZQ2fKUKRhEAgEwr/Ov75zhuiv9YErq6wvXPVyYgsyXiQ/oSW7RdGPbznNjjf8YVR8fy3p9PiV351RU5xHu6sDyNh3rNvvgklbJp9wUhS9ydgXUVIFcOuDfPF4vEKfS9dH9WBXxTwtlAFQkjhnzAW/EYPD1pnq8/MOrTnntFq2YE9XVfdJtDtwM4j6QRgQ7eGBNiqTODr4zZrTi/+Q552esW/S5tgpRx1VAZSUV9g7+q42MFGXKr59e9SC0+6XFwVagYK4QNn6gb/5nHHX5+i7J57NnzD1gV9W17W6jIx9x7odl96w1euENbv49u2R8wPWXFmw2YQhiSf+4ADbJVHf3ad39G49UcUv51xP5bq6ppsrMSoKH2Tw+LXHuwyhuwAJt6mr4ssrh4x4/0ZhzuRQzhk3t0MqUm/T3+WRHTUJBAKBKHStmfguXwhz0yFmClxAU1/doe74rQOPEkdPiJ1mwQWg1+tXz9hLgQlZ7n10eWkb9r/DD/P9R2sAgKbyr/ZNg2To7Nneo4+8FMDqMUAJQNmfYX5qtjEbHGwAQGWTt93PM6KCq7t4sdprLE7sO06dBbDGjjHEL29jgIEAujoe6Vp3waTBy47tXf60CFayNBhwMrToLO6twgztZ2Zmr+zEffIoj4ZO2o4j+YZbv1vbXx4APEfuOv+Lx/W3mxfqtydJxeWPxHI/m2oZyElBTmaiVtvvZEwZ0GuCBhuAsamhMWkTBAKBQBQaACDrOtFCedVZmdeG06y1HYbZejlrcgHQRQ8ShAg5KXOq0bWW+m8A3dycWJ6sW3eVjwZpYjBQvsn8eszTPCSk2epGNBzidnhTSkO9fQrNgJ5kSy42m4lqflXtj5K3/huubArJflUsllxYVrd7NIcD8FVYUGcDAJdDlQtoZOS8KOanz9zWJBFmFQ3/Wy9+Wr24rYnSM9uh/nLugTMXDLWcDHXdrM26yrbt6aRVBuuwSEsgEAgEotDNUXKbkOvy9t7dlHt3XyzwjFiwZiY9W18ihJvn01M1/naIbCb3/YODR1YddeR+pjR/yMgVPV4fMDnOwP+CxxhTBS5d9MfgvfNbC6dCStHt1tJAq89RCtLqc+ZNGZj+5mFK1rWIUJuHaefmDx7bpglshgxpBwQCgfD18VWs5ZbW0hk8qfeWIwti3ZVwMy0RAKXSzUQK99MK379aU8uGWxn0tKjt4XfsroGEjDuCj0+xCkSf+gx0WXhUJSb2nWSqwAXAL3z6trUwNbWcFFt+EEFOTk52adtnhlnGhqZTBvQ9PcdlUtXbU9k1TYcQomoxmWQmEAgEotBtpfLy7qsH7r5NzSvPfx1/8lEpTNX1AIA96jt7y3u3bPfGPM0sfvMiLfho8OATaQDANVo5Qwu/nPG8mJ6aW5wZ+WLHwbjClqVwvMsMQcLI7+5dTCpKe5MTei506trIxPrTBmodebl+9wr5/E/QaUrW0pSFh8mJAFD5aNvto2WtySHXaOUsbWyRPEhi5MuTP/mviBA2XBB/cIR+B51NYW1KQGb8ivDEJ4VleRUlT2LTzkspOqs2MqCVlWyFRWdSSgUiEan0BAKB8J/gX/dyM1XponXeft++44MtazKk/6M1lrW+aMpx6IMTrG9/vmm/qwJsWWVbw8WLlSU28XKvKKXgxdtPmbwTQkdt0JwRC1uORMn84EU3zR9DZgy/W0yxYaI1dsJA1QYT28FvatrEuXu4VW142+qjsF23jF+6ONiiy1/qChyToT2WWeXuau0egwXTozi1D8KHqqJVt47f67V3zMRhiF5GD3pQXsanoaYxf9yAFQqNgtK2/s0hx+viGQ6/6dtWBAKBQPha+QrehyYQCAQCgfAe5JtiBAKBQCAQhSYQCAQCgdA2mCQL3kMQdfTW0RTx+yeK7bsHjNYlGUQgEAiEfwAyD00gEAgEwtcI8XITCAQCgUAUmkAgEAgEAlFoAoFAIBD+u5CVYp8bXrLn7gjZ6ZMOdWB8/sDpHO9dl36upAF0HjPleWfZ5hdkjkFpJSAF/etQaPJR7uTrZ8wKrIqndFH6xDSkj0BFNcCE4VXIkZ2kCQQCgdjQX4qKOzcu22w/TG0+Svnd8SuqbtNNCbepHTevfHjMo9jfWr/fF5IuSmvT8rn02tEbZD8+tJL/Dp1uNJNnALK6BlMslDltjir+sj91Or7k/ROGV9BxGagvps03RJQNj5rJk3zJNb3GzIY3IpJ8rJRAIBCF/h8jOeT6wOe83iNGJM0YdIDKnuEfevcTt5eQVp85qo+HwleXsdqdnU446HH+KwXzDMfyakj7JBAI/8v8615uQbRv8OpTKXfSK2gFRZO+joc3uvST2H+CmP2Bk/5IfiWU6z7fvovf/aPrl9Oj5AGIMuJ9fgzZ8qQAUrJGQ/oEbHfq0WibxeqS3CI+S1FLufW9JumcY8+LYDviNyttAKajul3cG7Ettbq/GTsv7IJmHNtbg3cqozQdnDG9+gY4dOAAeH6TuphWe/fIDQdqpU/ymWth2qzNN30pALKzZzXxcldmxi+/FnUwtwpyCsNtnQ/3M9QGANH10yeGMbv6idM3vSlKYSp6jRh81FwJAISF56+G70zNj6iohpzKcFuHulvaQ1ZIkF5EIQAYOTf2cpeGX1aK4h62rP7t+dsXfGkbp773+hkqAeFBx3u+5AEAwpQ3hAGA/TB6qP4/VykoOBthhb9w+VJ28xFVoHDw76K0ckAVXksYR0dIdrb26sELd5fqcb/mRDaghN37WUvMJfkfebh6wklx7S3TvmceGyhNmj2BQCA2dFsQZZexh69yiwtdnh40cn5KWP/V0bXuTcHlS3Z7C4x2zE675bHsWfTR/Do/Z0ninDEXthg7h11dlhE0ZlLqPafVzxvvbfXXTAdtc/ffy9pggZUURVVKOenWbaKhpNJNVnQrvVjyMz8rqEOvl8tmiDzMK2/f8kwTAECXIbTPPHq8KbhGl33m0T7z6PpdKKSNjqybR68cOKnZsKc8dVFA+MEO3Z5955k21FgYGeIcWdxIc1IeOQ9JXuWVaC/td/XxVYkFzy+S1lk6bmTGYs+UsRYK0U1v+ZvoDnKjfeYl2X9oAro4Y6dst9Blsys9zOmIsPV5NQCc3abRPvPibOVh5lJc+4ztlWfREXcu9R4OG2Nbu3HyHCYu1lxpumFozV8isy0iubmM1Ivsv0ZJ+a0VL33R4P1OvFYz8gibfsA5rk4t3VBdWyVS91Y7+Imnr2Wm3GA/nsY4vlq0JklMmj2BQCAK3RZkRyz9ZslQEys9ZQPzjsvmmuFxykMAqLxw7BWG9D/nqmuor+vxs0vvOtkr+zPMT802ZoNDLzMV/c4dN3nbISQquLpdrml+eR6ktDj1RhXLgE2Bz5P84upsdtDgAAxtmx+Mas4/zeS36wn5Sa/8pDqcG2bVRVHe0LLHLkv59KcJL+tPG1pv1ZcDmGadTAfxSqNrd4OW1pk13M7NQF1fSd7YsOuP5jLpybn8L5H9XN1fHDSUABlDs7GygqC3FZ/ZRTNuZ2xMc+KDFlq06t1wZGxmY3GIsPHBu/4imOGeJ8vIQKr3IvZudezxbzQ/PVZqvIYUOJTbaAZSEQMA2OgvNlrD8Bkkbawp5TCFddwAW66QKW0CgfDf4N9fy10ccmfeL5GBrytQ2xsrmVeCBl0Wn1WDodoST7WmVmdlZigAIOZpHhLSbHUjGslMhzelNNQlju5B5zLoz5IyOSVLRm2YTF0lGWSVvAOM/n4wWbllUDK1lQQFEx0FxJW8FNOWtV5YORmJbctkyUJQKJEP3pMHYWuisu6U1q1cM6rmA59/FlmO20GSMIY2A9miz21fKutbKLfH/q7hUHMnM9acEKftaKiicdk0ulP124Z2MqSQShcCkiP6khzmsgExqgCk1zzgI81bTHnzGoI2oEmzJxAIRKHbQEbkqAXhsSsnJk41NWNTuHWeWlpR1epdg0dWHXXkfnrsHHkN1OTwhUCtWlZnCGhw6gMW87/Yc7NbNrufhzqGl64YP/pPfRUlJuIvn+lUAh6g9F+rXqIj7vKzg5pno/2GmCdrW92EW+Ub6eF/iA8ktnXQ8MHBUy4F9xPSZzuTtwoJBAJR6L/Ls7QwOZOA2aZmoADkJeWD4gIApWCtK4W4dzxocAHk5rwolliXHbtr4EjGHYHDCPaHX/j5GyvFlFS6ydb8nFUISx1AMi092FBZcrakJKGatmVRQHVcYRWUlJqs1RKJqsU0GK2/dKSrqoC43BgxbcSgAKS8LYOSnnGLN8ZnFEDP5kdjFSUAqE4qbTZoYdBMFIq+9HwqA58cBXPcztjua3hND7KUDdrkilCiNvSU6nZYJE+h1iveqQOFhAajOS6dhl2DSf0BtKhxbByLFBOFJhAI/0X+7Xloc3WL0tyA6EoA4tfRS45k1Z2QHTO9I27e9bqRlZObFbAhLLRO0TTHu8wQJIz87t7FpKK0Nzmh50Knro1MbBTk31gpRmlN76KCmIeLEt8l52Qeuxp1Q9lotbFkeTCEOZOvJjwvLX8d8/CnN1LjundocDIrK9kKi86klApErU9qciw7etVkj7v2+nlpefrLR8telqO7Rct7kuiqySMn614lDYjevQzf8KbpW9qUoouGdHbsiyellbkVgi9k6OtqyiIn/UIRvy3P+FGU9S1smmNloNxG/4fdLKZ8Esrr3NL9PZlIQj//6tTcmtC9gqX5cPdsUXo51FpPBvbXTPyzOjW35tVjkZ8Pf2WYkDR7AoFAbOg20NHlwprcybN3UxRHXU93xxyr079LOlD2yFHRSYGeKw5oixS7z7efEXH/aK0vWsn84EU3zR9DZgy/W0yxYaI1dsJA1fbGbzpo6G3xveUXr/zOl4Ke4VFPl/711q268e/SSQP2hRUwFcYMHHzESKbhNm3r3xxyvC6e4fAb3rZKvn7GLLLuCx9HDh9G3dtN8sZ7J/FY1550/bUKHIU+9oOy7dVaTpWmfZ+rubcn7vMby2HZalsuslKcUd7ECu3n6rIk8IHjry9AaR5ZPnqmzMctcl7y5O23/SXnw5U3hL//MtgHUezs6Jd4z+vAsRmif/xtq4bqwfjdCNNS64aTfZhJS2sGHxSb7BRDAeM3Mo61ZhwbL2I94VRP+E1s8rMYXChZYq8B+UoPgUD4b/Af2X2SlzSpy59ZJ1aEOv1DL7PmhV3QfKWRUP8m1X+FzDGomQWD4V82FtENvN4Lgyvkq58EAoHw5fiK7Qle9oUzryLzeHx+acQff53WNlllR2YT20D5b4gb1uAa/uxkfINXu0ETS5RAIBC+LF+z5olS/a/M9CkpFjJg0/HXP0Z9bGkYoQG9C9D7wlEYBJNsJhAIhH+A/4iXm0AgEAiE/zGIr5JAIBAIhK+Rj3q5RWIZYuASCAQCgUBsaAKBQCAQCEShCQQCgUAgCk0gEAgEAoEoNIFAIBAIRKEJBAKBQCAQhSYQCAQCgSg0gUAgEAgEotAEAoFAIBCIQhMIBAKBQBSaQCAQCAQCUWgCgUAgEIhCEwgEAoFAIApNIBAIBAJRaAKBQCAQCEShCQQCgUAgEIUmEAgEAoEoNIFAIBAIBKLQBAKBQCD8f4L50ROMKqD8yydAnpQBgUAgEAjEhiYQCAQCgSg0gUAgEAgEotCfQuK6PZTnw8KPnaYzV9qspy6Vf00pvk/tuHpVTH+JsEufXKY2HKA2HKD23gv/QG4kI3Eo4gYjzguiZucqThzxpSIKPjUFdBReDkHcYMTPQc2/lMMxm37+dml0W67MOrlvss26KV19pk64XvDx5NLxN5c47XtY1PSoABnjkPP8w7e8Crcz+e37LHGbElyS+qPbTsrIm9Lb2DtC2K5nFt302kDpelO63tSSZ//fG33p9aX7Vcy9KV1vakvGv9OxfGozyVxps54KLPpf7rr5PkPOTTwl+GgWPXtpbn7rUhtKgHcSrxa+16ERha7lZhBlF3Aa9L8Vv5x9x/F9NWS+WPiVmfHzDp6gNhygdgWMuJf+rm13xV/2p07Hl3zwnLzWEgv9DgzqS6RW0WEk7TOP56rf0kXaJ9HJ771lDCwjQ5Mtmpy295KHDvhSEcXND1PdYHkTeg6gqC9VJHT0zQXd103pWv/nM3XC7cb6qm5jaddLtS1B6U5ZcCr2py0rdJl/P7VVJ1GlBrUun/5AGb7XNpcYX3u8pjDph5tO0u0KgznEz4fOWn9/BPvT22n0CgFlw6P8qyW/zwqp7jzff6+NNyc09JubmHZhZXH8j7yl+v/RjuUf4sjk86OP8OjUFMfOzdXu1rJL5gtS/72ksez7d+hvxmxrq4+M1XMIixAheOnFHuub9MNcd3CzkBf5teU9EwSgwwjXoC8XOi9tVUDYQWPH0NG6Cu8SFl0LcVByy7RV+qQwtTvu/uYrzEiWy8C+Lv+dcpceuGNm3/reWU5BrdGAVXfE2NlfOn4BCq9CduFnaYXpSeUwMxn6tcmBnzjWEzZfX9ELcstFClrDrRWV/rsdCwGQGrna6fOExIZKN2Qdh6Y9GESh6wkMoJYl1P47SXftJAC2zjGXh9U26aKwO9/+HBn4ugJqms5zXINnm6kCoPP8l1/e9Vd2dJEAapq9pw70X2SpCyD0MrU8c7hR2dXXbPeldrJ+9/xKNZYEzNxtxW7J8vjld8PdOQDQZ2iBf89GNlNl+K7zM/2SXwnl7Od37vyedVSak1PJUeygxG3dTox7ub9G88hwGxcZCpo9tyal93wU/9K2pyWqL546NUbKeLXw7f5cQbmc+uYRA3/Q5wIIDzre8yUPABCmvCEMAOyH0UP1ASA1TPtUfA4Aab0rq4YNbzCjRRkx4YtDk4NLRVDSmO/ad5+5EgDQOd67rkTYOnZOe/5rbhWUDY5O6OulwgKA4lSfa9EBb4tT+DTUNBb2ddlrpdreguSdPXJyYnYNAAwaTzup1afq+ukTw5hd/cTpm94UpTAVvUYMPmquBDp/x6/nV5XRABBylgoBIDXYY9pNM/Y/WftodSNtA7PmR+O279wWUA66ht1vzJE9do3OVMceuxjk//pNfo2Ssb7ryrHDnRRbiaE8+9L689fCiihl3f7jVYRNLUhRFCr46NCtaUZm+y4MWnU3v0i9w+yZWk0uz4j3+TFky5MCSMkaDekTsN2pB5sCRDe9NrmG1LrngqjgIFBsl8DvQ52kP9pS6MyFdr6Xt67OGMIFgOBAar3oUvSkb9rbTj+KGuwqsf6B8GKv5jZ98FrBqJs1EAL6OLSDNducAQCvxJRHtedCqfiAmthSoCMifDk92BQA8OljqwVeETSEgBkObaZzCcUAACAASURBVKq75e9TdsRXcX1a7f+DdKMBYMFs+gcDAJXPHy9cee9YYgXUVHtPdZVkFwAgcd0ei+QuIQMKV++Ljy6i4Twgxr+3zUcLpYWORRCzP3DSH8mvhHLd59t38bt/dP1yepR8baFEeLk63H5w4HU59Cx2Hxi3xLTNzYGXu3/KkQVsl9ijLl3ZFCCI9g1e7Pv64TshjA2me3/j108NED1esrtHvnOmf0/Jc6VHdOv/wOTK0kCrvy8EQQsuul+q/fc5dek5IBqyrP+NZSoSF8WBqPXH3z7OpY0tVBett53jKAuATs1e6vPq1ouKjHLa2EJpzg+2i3orAAhdd33+MxXzvJxnHE3vidKHfsvKN9G5FNDdWraF+IW/jLq6IgqAcMLWb85MbpRTZWW7Vjz99W55tabS9xPkpNrstuEOADaiogRfdtj2N4cg/3L87pPorE20b1doWAVkbaSzNtF1zZ5+fMtp9vMSj1HxocsTd9mq/3FGLTAfAPiV+Vzj1XtnpDxanrjLVtnvrN6JvNrAZIoESqu97vVH4PZ43f3zL9hV7DmR0nL8BssX0lmbXs9Ua3a8JOhSz8MFXXfMTrvlNu/Z86P5TSco6KgtdkY6I3fGtuERk7MKoKRhJ1MrpUxrQ3WUFEbVTiHTYqRkl/QbU7Zqaoa99JqzIQFVNABnt2m0z7w4W3mYuRT7zKN95knkGYCxyzufefTEjs0GVzVpEYMvZ1S6DMpY7P7YVvrkn9eW5NX7bMV343P7jnenV3lckM+ecTNJ4jmv4JVoW/3hOT5jsXusvey1izcb3fJ34U6YNYf2mXy8w4f8q8kpj5yHJK/ySrSX9rv6+KqYBqW+cslc2sfjoIY0Bk2gfebRPnPaLc9hnmbU+6wIaeejdFq14mTsT8vcONJNx2Wv9xz640/BwI3zdl39bp4b59oqv4c5LYckfLjpeHCqxtxj363dYZN1OaasaS2qjkWNItiNVV70+Af/WUnq268sy/B1FgU8j6lPQkninDEXthg7h11dlhE0ZlLqPafVzwslrun1dNb6+yNkMd6NztpEZ64NrfVyf7ylfK52Kjrizn0/5x02StqFHLaMk7rkJ2o2DRi/QzDqVs26X5ipF9nHlKk506uvCBq6Uf/wmmPXOPQVtlsKnOqc5EFeAq8MOuCI9LuL7LNa1JzZ1XcF7XSYK8yaSWdtEuw2h65dSNYmOmtTrTyj5OVsj+vHbPpHhi5P2mxF7z3TPLtePB4fqbPr+hp+7NKIGToyLRXKRzsWweVLdnsLjHbMTrvlsexZdNOORRwd/Gag72L62bIAjfSlm2ML2yzPfk3kGRn7jnU7WD5kk1fKo0VPZ8jcnB+wJkUMMB09Omk9fuabL2nmGeeioq2t11gxW2lBimqyeooAm23cgcOua6Ru+0bTWaNvulNmo7rQWaPprPH18vx45123wKqp23u/vD9wvxtz99zwwGwA4BfwZXqZHz7VN+2R63437r55ESckDnLqjUBqzbE+IxjvvK+yD5937lWUcSKy5fUX0ssvjaazXNdaN9ewoO/DdmRyD1wZ8mivSUxQ5uvGOczimumy2YCSmqy+RvNRCdMabAplccTL3SYv1K0DjxJHT4idZsEFoNfrV8/YS4EJWe59dLlGS342klyl2eunQRGX7mfypmpwgSp1Hfdumn1TNBEn52qt0clZFfeKC4G/bxhW3jiTjCGj/Fx1ucAMn37H71wKbeeDiPIrBODI1FtDCrIsiKpKKmkoAAAMO23VlwGg393mx9ArK1+XT7JVaEcsj56mJhrZ3rfT0wb0XXrtjD87NyprT72ud+82WlEakHa10sZfeQmwdgagZ/2bnuS8vr3D6qg/52aU7tFQ/vyFaWi9VV8OgFkn00FhL6NL6eEqn3OCucfOq69WVvGa+qyY2oat59rp8etOS/6vcNi4ZdE3rI9bw0lXruQ7bJjTrwcLgLrHN4NubL57u7Tn5I+a0XThq7sRFfY/jbazYgF2np7PordUNanj6YACGo8DeGm/XqlQ2ew601oFUPljYYLfD5Jld2V/hvmp2cZscLABAJVN3nY/z4gKru7ixfp4Tn68pXy27mPcztjua3jNpjqUDYyAlwAAMzdpOzfB73k16xpdsD+4BtOk1rtIAzDaw97bl784RDhihCTv3ZdId2VT0KLmdKaCHtZgBhArdn9Fr7/J9tCQAuC+nX3Cmb8hUtS/l/RnrEXVV/6PvbOOiyp7//jnMgMzQ3d3IyClICoKKnYHBsraratirbp2rLG6u661KxaKHYSoGCCiIpIKKN3dOTMwcH9/MCCgpLnf332//MPh3nPvuec853me85wKuSykfWVn714MAmrDjk6INb8eGunSLE5AU/njQJ+BYgKAUJ/Bkt2qlKrb595j2Libw1VZgOYeu5OtFMs0+0lyQoDQxAma+D0rAhjSUbYly/KOz7rV3DyDTDl4ukDzt59/HSQGAM5jDt/6ffq9rL3L1WFttV7p1RrPwm3z5UHm37pTiAVO5kBt+y1oyh/DpgCA6uUHqp0IUhScuFwx+/fRs+1oANTnWs2/5+3hW+40X5xlrb3Xmn+X/FzTse53n7ytc9GmAaSWkXwvfckUfUTKKZjoy/XXwKNMDiDS5bBYYe7FQO6U361HGNIA1e1L0y5uqWq6SpgZPLkFANjsOODjxBKg0VGXQVnozhR0cVBsLR66C19s9kcj9XRAFVXhx71WXkx6nsNBw5TVgZxqgAWAQRcGwKSDSRcGmEw6uDx2d95eHppVixFKfF2mLmsqRW/RkAir37LZv33+ZxI0SEjyQyqEqL4EkZ1bAXTDQnMSi3jQkVFqFDUTGQYKS0uhLgkANNvGaDyTSQOvhj/7k51/6cGLg/EFUZxGb5VX91VqU1SY/410IRFwi770hElBJX0DpW4lbDYOXS+sJNSeSOSmZ5QhcsmegGZxC1WTUqDtQHdudlGtWB9t/mPl9eQlmKkt+9iAEJor87zCuHrRwSZ8AWDoK+mDb6EjQvMRm2Kh+rKZAVZOLyMh146v03ZL+VJIqRtItTfNqlZDYIcRMeZS7Xrlxq4Oh4ytgKV+409Jwl4Uv6d/6BD3UOBfYkkAOWADiKsHie1DudubR//yvvCks9SEEqiaWjD45WnUSwZ3C9+BNG+qIR2NIWItOmxdrhSyPCaz/oNiUVBsqVhoUOPv4MRg0FHDqe4413Wlh64sq6rDPEX9xpwjLfdtCSd13v4WmdCrBABC3nma0hrP0Mj5I83fRP1WpHxohOzntKBPfWN2YUQJ+Wam94FmfxtgXAWIo7zy2I4wt8dlcUX11SQAcmpFgxkmmQw6AIYQWOI0AEwGweF0SxlllaTWMkfr8odANHQldGhVXYgp01DLpSx0J6Fh71LSRb515/q6p9XRwtnH53s6KMoAURuOmGd++XezSBo+KGw6q/vagC4nykBudS7Q0ATKq2pAF5IUaWo+zeTwKxnINjqQz+/7zcxVvPLTkHEKokyUXTh54ycO/os8c9Yb4JHY+q+ufuQhxw6UySfHoduuSnGXG66OGl1qXe318gREgCzUtz3W1CrqP3RM9RmbztvXzrYUovseE++0k9iC662lpvfOiJBfm36NWErH+tqA+Z8XNWHA8xXrO0+OZNA/UfhdrJT26c6c8r7D3swtHTnbc8TwJQG2ovyAkIDEFL9Pjy7LT7LsfzTofOxgwiM6v0/f2XICn9OC2nJ9Bc8/GuWijY/izwF7spQu3e7joMUAuOuH+qR/HcvB6J6wcVFXC5ocZaE/WTgt1QQhbaUjgICUIhf5VjHq96FZsB1w3EGRBQDclIwKfPElOYS4saoAkkoBeQAoK40uaa3FynJzqyGhpNhx29RVlcX7/LAa0kKIAHgxqQWQ1LVqmOFF1qGwNAXQAlBb8qaMUFYUa+GjdNZmM9Vk6MgtyoGKEgCURRdxoSHZ7oSHqtgsDmyspiqIAkBt+auyloto6TTw6tjfou4/1y/pdpS7KyKhqK4o9PRtVJWjxqcjb4JCQE11CzFRlJcRLMspADQAoDKnuLrlMD+rJxCFGhJNy7QUZM1ZVY8yatGgW9NL4hvvNewlj9Npj7nWozutfdpuKXQmA+lltQ3d6fI8dst+NR3gB59YHbXTDqPcAGg29L2M2rUPGmuZSfQQw/H4en4At5QMqISWensfxTIQQA0uveWNNW1DX3HKckvZQpIK0szu6wJNPSl4ZUVwyYbO6LvQIijrG7WrXLpcKQ2KJTqHDXkWgLzctyWfGVCiYYShqZ24z8wk81Ve1x9NmyImAAVFW4mqY6HF6CH/iRSKPZYZ35t++UWtX5Xmb/ypoZ/RgoTAaemhEcqyRiJxT8KqXLRbtRT263ecoUtNHLQYAFBekp7T6WkvXG5+WT1DjiXRUTkTWlKagnGJeYA2AJRmVSZ0Wr2QGaipg4QefiR+jPXQGrKG7Lyz/kUcTpO8Msb93NvI38/iaERoRkn62xSvM15DL6QA0NKTRkzS3YJ6gFfq7bP5Rc1XyJDIhGm6uBd0JLMG4EYdCbrfqpbJsH2WWspTOjVTTMLEaKlA3gLPyGd5BZHRLzYm1Kj2MTZqupwRtSgkI7208MmD178LKBw0+GChVRVEkJt6u5jD5XXYjOkDzbX1U6KWhmekl5aGPAv6JV90lZli+2ECVRlBJGak1AFghz56fbxldIepJGNRkXM6Nj+vsrr0ay3kZ6lJEHifGsmt7cQ3tu2xK+kbmLfCyESB9UWzKqY3YYJ09OEL1/2yCrLKU18n3tvr7hfTrG+ip8LKTnzwNL+0oLyKCwCEjOEgW8brsy8K64GKwluXU3ktZVXQFkJ1qEhoVh5aCx1F0v95GcUlwc47/s/bpisKk+3mcmPH/Ox/J6E4JT038Gagy6+v49vNcZsthZB2NBLAveh4AKXJO91bD7yZ91dAcNSfMUU5eRXs9tuplPpHJW/eQ0OqVdEvmkmLbTb/ZulYAZyv3/6sNjet/vwqbpgw9jm2O6JsTjtvSFxbXXvsWW1KWn1kIG/3Ys658mbq/dH6HkqaMjc+K5gmNNp6ek3ytK0RoRkliQ8frLhdCieL9ierd71SRCbMNsSDJ3PuZ+bmZXrsfBb4ZXoXdLONk7Yw4p3WR2QCYGmtm6+EfVec76Qm55XEv37nvuPS2g+b2IhMmK2Li4+PEdq/2Yt+bgtS1xYviMr0T6n5EJQWl1s9WeTqrpd/+RSm51W/Dct32/7ifBQAlr4KPSIgt6AeQL33wejbpZ39vvfnX6j2evB7cCduFVecOYR+58S7jHqgvPqIez7ZaTegNhy1DIj/WBb6x+hDG1qfdUmZtugPVvWHVRyEzYigC0JL9jzofbgSDBEpC82VK6UAiDuPvxl79afBe5zEmNKmVr9NlF6Q1933sqMnGl65zZese7Kq90CTGHl79V1LOmPKpOcZ1+aO27+BYGo66I2Tz/PsvhnSOjDDrs43bMCpVxAVH2XrGNK0GJqgwUR/0LtAjfsVkFLZO9VhhvCHJithanM23n/OyXNzeU2rrSovnPb4KZsvc6P3nAL4q5sE9Gz9xpDzAh9q+PAgKT9v8rB9ykLta6QRwx22ej3T/j1CmSnUw9Bku0Lx9ubXlXqecyiY5HNLkdNsrVdbxAcQV97z/599g3jYtBisA63oaN93kVeIxf7Q77La6lN+dE7Etol3UvgjgJ6zzDwBkek31o/Ug8GqpSsl71z/48K9nFpBSXENS9MxzWbqEpaO853y3DYee8Thai35eediJUCw35Y5hdtvbR/wHJKiZv10xRNb7P9EqEFKCyX3oaDf1B5t9rmcdr3Rv/fzSnHJKcN09Zvm80rqn7ozRWHzw7mjnpQQDOgoTpw6pP0pkG23FMawjeNmL/I26PlUTkfz0HgduLf0KSeNuuR/ZeboI7/waHLuG/PtWe20084g7STodLTuWuNQkfE6hmc+Z5wrb0ctD+r486Tg1I76oC5nGYyt3GmuPNTyIA4LW+JssyS1pexqQqKX4uctkpE0On12BONXv94DKiEu03PFtIz5yh0laaNS2lEsY8aFJ1xzXntSiSfRa2nvuS8DznyR5bcs5R1HB94f76vvqV49Tk5j2ewwptfKAxd1cjiQkehhZbhR7UNnjDGk91zWuzNDzccyPttBMJjYa11QsNMQ30Luh9VWNpscHkhHbj/wamNmnbiMcP8+MmvkAcB5Z9/ojeHWFrHS4kKW0w2WGITkdve91fdCRBZlox4ADRvvXd0IaMiHPe1rSceUnQ4Za18Ns0gSEBMdZq9o8KazjkDZIzBGgEXgR4IgyU8Psb5/F2JoZPT1M/D/+WyrmjsXL06QGdKB8fvRIBORsAIy5yCj8HVfVLYFWQUwPPW/vDVtXRgSd0P5MsSYoOgm3FBn897pMyKe/Wr+38o4O2FGzxuZF9YG2gp+0/fmRgwbcF/wymofS0rqmlpiNJI2QfECxCV/qHxRe4pRdIscF+RpQv/UV5EgMgzxm1FLQkDvf7wYaVZQmY66dECfkqluu4w+wTUGfy7+b5hndvZtz3LVQRqm4jURJ55eVtLxtvyWSphXllf6coe/n2bPCMo8tyiYAkhv+NHMM2WhKboOoQv9e1/5FVYwuP//pTxFnSiZ+jxpMd6elLT9v2MKki/5zNtaWlJLg7nhnyfGjWZ8w7Dqq4c6k54XaWnvPTnEnJKc5jAcwPghpft/Pspd9Cxo6/1PnLbEVdBYv9KC6rlQUFD8qHDDzvidSfrEbOSS3r08xqtSBfS/739S49AUFBQUFBQ/INT50BQUFBQUFJSFpqCgoKCgoKAsNAUFBQUFBWWhKTqk8sJpN+Jl4dd5OC/g8hli50li50niduInrtdcQ/RQRA9Fwl/f4dNTRyN6KKJHopL8QSqj7uGybbPMts0y2+S6O/ELPbPw/MRNv12v+ko5Tj7+9zyXh2Vtb5AUsXvPktXhXXsoF2mTkPum6XfeaTdi6N3IL5JhMmOd+XbiWvGP1QrJjHXmvxKqWwjVLYRnxX9Bb3CLfzK7uSHgP6btipch+Ryl9D+fH2O11YPrxC+1HuHTp+PH2c+FlxbxYmVgolcZD7LyS4fYH9PvzFK5sn9O3lhkNpG0/fgMRyEtTZ19Cl9pDSLdfvpcEjz/6+6D2rqFEIfOdTRuXFz2wlvyUdbHdxlNmR1r9KUzqekD3n3EHf1adRWx+7fDN9ggAdBEFGWtfhruPF1buD1Zojke2+EIBKze5t0l/Z72etOMx4M8Nn7q/AwR3X5mSjqC30tg5cyNLLldO2i12h3VslDp+f9I4RFqByN3HSQz1lm4HepSwtLIYRYPJe5++jiKL+Q9vI5UX1Zx7YVdwbo7eyVsgrcr/eCF2U6GJZagYBPKx/+AK4wpC/2/QH1KyDDvBCU7+7dGonmRwUNu+CrNn7ZF/nNCDkJ2Q+ztfpgPlLB0SNDmcADBnIh+3rmOk4dtlhYAICrF+C/WF0lo9dx0aKC4QE3+y+fn/jp3QtDVdYrEt80Dq5/r1O9YBKqjJy7oYge66C5EllM6gOLLQzOBuDgK70B8NlUY/2ULfc2DWBPb8N8Zqr/OQIv9foufPV6y5/W1uErIKvRdONxrgZ4MADL/kqv34afZ4cVcyCoMcBlyaYWRKoBAb8I1Y5RW+d04htNqS5Gz/mfL5Fd5zDvSo8nkcMtySyqlFFQ63iKA9zQ4IU7J7J6DjhZgMqzvgfe31odlbhmhDjJ77YG7waZGKilJ96rqKhS1b48bMF5CAGTBwT9vrS8nAeDhVeIhmm00zb562n1aw2bajpNJ22abOaPy8X1/1ze5UTwalDTOjrKbLS8EADmhZmeThw5WigtO9q6qg5ZFhJO5OY0Aat68DNocnuFTxgZdpKee6amRZn26t+MBU1RXURQAakSkQVOQlTVp5n/UliTv8g05kVZaCKapkeWFsabmNAJAccLrnwPj7+VVF4Emp6pxYHhDhtlXT3usFlLQzs15rmTsLpe/KrygyMgue4LhN+wECEnIasnKCkBZa+xQ/ze3/N/XTrYRJICKfN993g+fZReyCWVLo5m7Jpl2sFlpTeTft+88ykjPKoegmN5QO+cNfdRZIBMer54RWFQDABfGbrsAQFDRNXiJOR1Aqce0I/feAag22bJ9w5RmR/rUVAT8fs3Tt+HtPaZumWipDgBk+N3lSzMG/qwSezE6Pb9O3m7wz4dslQQAgMxJdt/j+zwkv5ZkSOoqjNky38G40Q2p4cWe87h9LqmQJ2S8YPLK2TqCBABEHzi036MCZD3DYcLpPyybxN13wd5AsX6qhTHvk9mEvPzEXS4Oxh/2aueFoZIDZauPnNOqpzvPjL+YnMaSsV0+3nuBlgwAcMPdvDZcTHqcWkmKS+jY2/y7y85BnGgMN8Vs3fzwZEhhiYAIrY/xlYOjJ8u19GXZecdnnV7GsIs8Y2fWtrjmHzulcJu1waDCPbg4W0DUesX4ABct/p7guUkHt/jsCywoERARGdbPu/HtbSYhM5Zbunn/tiFtGAsAvK4R23me4TPaO7+yLcWS9nrgQM/AhrNChm4nAAir7w+bv15MoE0dBSA36dBan70hBSUEAzqqv+6evvMz9vASqM7KX+UU7hHGVTCVO3C874jGDcNTH8ZsOpT6OLFGQFps8iqTQzMUG4uXs3WYb9y4gUOTow/5lmTU0Uets7k6Xw7AG4+wVUezXuWRWpqSi7b3WjGAL67s5OxftsbcCa4qYjGHj9Hdt0VXV7hBjjg3doXu9SmOKye1lMVHrDI7OFm6U52Avih+hNrZEKTsbPf53uPQTjPIzN2kmxnke3hk7iIzd5ON5pl85We74E3p9HExga7xhy3kTlyRvVYAAJyqApb2hqNzk4Jd4w9bSJ29qnYhv+FhwsVcyQ1z/Afh2oEY1eNLb1tW/nEh6cO7Yk4NVldW3fKsEz2y8tdFHCjKa/EjY1K9FQSRW5TCv1z3PKlq2myX8vXTn7AyJ9yKSgFAyK1btYjcOv2UvCAcp5JbF5NbFzaeA8GaOn8huXXmeeXWopr48N6Qt3XTJ09KWzrCg5U351Lgkzr+SK0gr/hQusSB5S7kCvsl2WEW4Q3bv9flV9HHDRkStcw5w2XAjKJIW6+40i9eKez0jWcC/hbveXfRjIy5Ds5F4RZeSQ1vqajkqVvY+i6amrd09DnpomYZrsthaV2YYTMh/c2sWpOQWeaO795cKq/vxsufOesRH7P2YWeDHyVvo8KTSEFGgymq9F3z76NCrVmnVhy+vmCIXMaRJfdzO8gVp5TDGrBmyu7ba347O04+4f6h7dG1JAi9wX+83nHBa7SqKMvFa4d71A730AbzDEByxpUd7lErhugIthpnj/7D7YI/xv655PD1WX2ZcX8vuZXRtPsELz08Sm21zy8nPMdJRXld9qni+4YH3F9wDVffXH/4zoL5P+k2ExmiNikiIMdw2bkVKxcqx528E9B4uK7J+rXukTvWTGEKfmT8sgJjtNcv+zto05rxAheWX4mubu6JoF4CjI8CDXExq4pNbjx2jf5Vq3TflaEBDYO1vOxyxqj1U6IDXVOvj1ma9GzQhnD+mR6l7xaNv7JPsOeZu2ty/ebct0FCQX0r83y2E+a58e1J+83HJIb9WnfanLHnyvCXDScblp1ddnF9sdaZu2vSro/4KfLJoA3hmR0k6TptKRaN3k9Td5PRk4cKSkzx205m7ibjFzaY5zZ1FHhPt19bV6115u763IeLXy0zlCd5ABBz0k6Q1lq2xR1/z28oMSGWniqDAUjKiqjLt+g83TwdZ77CNsjLtm9l7i+H0rkkAJQ8ixy2Llt7gXWQ/yi/g2qJR16t82t+QB3x+mzkK/MeT8PGZz7qt9CIAaDkUdjIbQVWrv3eBTgeGU7sWBR0IRkAyMLcOdNCk/X0fR4Pi75iqRIb7bwru+EtqVdCnB/Ubzg/JCXY8fJB7R7ND7xqO8MAhIxAFKGaQ1nZ/8koN9fvZHD8+KmRPxmwAKj1/9M50vNabKbTQFWW1qo9fNMJhf47HF96BmSwXeRZQLWcipOVgn2SAqJFhxvLm/SVgX9JESDT9caaX0WC2dTfoIsxhVBY8cEW9rKaIEIALAd7w37/vrtYbPardNd9HbLAI6YY/Sdt0JYGoD7KyuevwP3JNYP0GADqIbKgn7EhjYCY+kx1wRNpRegtBbCGDBnQ6KKKre+ruvFuZhgMB3/Ros+LjDwsbBA7pocRAIhvGKR/4mqsT53OTBqhYWG7h3+X+MiBZuPfhHkVkYPkAdA0NZW1VXi2IvRcXVVtVdHejNjIKhLiXX57946qJci4Z6stGp0vEWmXecaCBMjwp3ffy/7kNchSCgCGrBkcPME7KHb4ZJN2HiVuv7appyU5YYbO8xMxufUmat04gKgm9cmjfP0FcxwsJQDZsa5Dgqd6+0dMdOnFf9HgJeYSBKBsatNTyDs0B2N1AW5pcZ2kiZ6hmiggKqnS8oBfEeWJGy01aNBQtTPxOJH0vsZRo/3zy+pE7ewdjYUAaE0bZOLu5v+sxmQYPwk3FRDHx0ZdXOPvXb16iQlAbcSRu2+GX4gvsreSgcjo1U2lIrVmkZ7rtqTnsBoL5F8KPCNk5H3SoWH3SoUlY4c0e5hkWd7xWbc6a54ByOpccVFjATCz29z32XD3OLatGSs19u8I4ZE3Ro7XowPSxzYnHF8WdrXAwrWhp/7JJN0ZpWhTsXRZR4GbU1ALfd1heuIsQEFdzrohhfH0S29tizkt/Lh6poRGQ/iKMDN4cgsAsNlxQMuY3oB5lrPtRACsmSlrcTUvo15dl4abp1KUXPrvniwHAOoG2ycmT7qefnCoXlM50800DjnLiROAmtRgNQC4ezlTeGjP3ZNkGATU1/ee++iux50ClzVyb87H+ihppvyqIScAgLV3hZrqL0nhdcq2dORlVTOVlQeZCssJ7tFMLQAAIABJREFUQF5ew7R5q2szwwBAkweNBCcdEtTOjf97FposDoqtxUN34YvN/mikng6ooir8uNfKi0nPczhoOPN0IKe64bR5Bl0YAJMOJl0YYDL5B9HzMV4ZWrPyi4yx2EqKNmogGQOyKqioFtJdH77llMVVCQxRbNxVTVTaQKTeo7ACegwAdXThnqINLY3OoNPA4XEAJpDzLmRD4Hv3omo0hN0E1crqSNC+5Ay7pMwSFGT32Pm2WVOULa0iIU7wCpJ3+YYczyot5B8QzHRu7PRL0oUAUpIOMToBgEHvpvcsqKRv0PXgOEloma071FesuOjxMT/6T3MdTYQA5Cdkl1VkH7Xf1uzOWuXyDp6V6XfPwy3mfXxFbT0AEPL6td2T4aKSQjbTSJvfSyU0lJTE2TkpVeglAgB0EYnG8Q5hhkA1t0FQRXqN0/PdfXFNuKZhTxWj4aY25jJC/MolBRVVZRr+L8QUFhIo53YcIpNQlubbYCFJJRnyfVYR0Fi6tYDQJ6ZmKstaiDW4mwxDE2k8yM0AZICSh48X//76Wlwlv9FJ6leBBOrevc2HsfngT1vfutJDV5ZV1WGeon4nx2LkZAz4d9K11MURXpgB6MfnhNMk/tZrdIL1Va3qEp9k1PMt9CeTdKfC2lYsXdZRIsOnGUitvyocp/mTsZL1SIs5fRsOW5ZQNzTrxkl2Ahqq/Fi0hAStjltXAwBlr5OIpwHPicMfciRpxS4nIdcoMD36yIu3KHZOfGadzliJxrpg9dajXUmsAOTik8urwsrl1ZObNUTRfDYghp4j9SyvvOkzpMLBVqxfX4VJIxXEO6ltGCAIkKD4n+xDA6Bh71LSRb6143rd0+po4ezj8z0dFGWAqA1HzDO/+KuZ8iIEODVNLmwFpwaiYp+Ylcir4/I+7xvb0fD05i2hDgBKYufcjq50cEy2VtOiAbEBhOfXWd2jZ8eebsz8qNN/5NKTnSrWwT8b2YgIgp3ofCSI4H3hNz9z1hvg8dECKFc/8pBju+mExJW0FGV1FOduLty81D3EaLm1IgBSSLXHDs+pne8BkwmP/9weqbZm2pHRWhJMVNx1X3kItd9Q6lUnzjraJ/vt67Q3/mEX5z0J+WWl6xS+JSeEyM8Y0uPV1rSoKwERIAv1nRvpSns9btmLyHXT4l109RgE/G4RqyurO/PWvsPezC0dOdtzxPAlAbainSj/us48lmyuuDqTpBNi2i3F8mkdBUByytQ8uyz/J0n+T94uc365bNM8coE6Yk7amS8L4rUcBRAbcijxgWu3ZqHyfjoy5tyUtjoHJJPZhciPvpNF3OFPLFFgmev4B6k8e5EX+jTnr/XP//C1fPa3ZqeMdBnqSAh+4/ma/2v8MOuhWxk6QtpKRwABKUUf3fg+NAu2NscdFBsmsKRkdH5RIzc3Nze7rBNOHSHeW4aJ3Hz+wDNZ8jqvFooyjSGwupeZjQHvgqIQQqS/TCvFWdc5N0DUQKT2UW5j/iuL46oEbGTb3ag8J/uBoMov1qpaNADILypp5W8xIAAe7zNHfnRUpZCb87juo4KqLH5RzVjQz9hGRBAACvJDeV9eEPocuvs+ohWxb9f172x6Qq/vKMvSq8ff15KQ1FNhFWa+b0/RErU1LexvSXR2oZj2hAlaEkwAyE4o4jUvByEAArU1ncuJjJQsi5OWXMaXorScnHKWkopIx30PZeVe42zn/rF83ihmrH9Sbfe7IWRhSkZ1Q/KKgpwiQTmVDyM+rJ5AIWo+enh2YURFgwnhvo8uho6iAYColGeiOqcW6DZEUPMTCho733QjU3nEpj3mkp82YCMMTe2G+sxkPl3ldb2iE/MSmr09NqEcarJqAPSVLOvKfBMak8fnhNNEBqkJtJcEdCYD6WX8ui3PY7dqKUwGwK3timKhEeBVcTqlo/idUEWVoTMG7Du9LNJJEg9S4vlR7vBWwh0W8s/sbplnid469IiXedwuiAdTX5WWFFvWmIT9OqFeW1cMgL62SGZETmxbikucaTdcY/W+Pk/2KEcHpcZ0Tr/VJqFeECx5ysr+9y20hqwhO++sfxGH06TyGeN+7m3k72dxNCI0oyT9bYrXGa+hF1IAaOlJIybpbkE9wCv19tn8oqazb4k5NVpdWWV3J2aKgT6wj7ZBTtSsF6lvC/MeP3ixvlpsl1Wzk2Qig/cnF2cUZp7ye5egpj/zwyA0S02CwPvUSG4tl9eR+SIUZxhLIyjor+Ti9NK8y3fDPITVt6q3O7AoJWlWW+SVxwHAK3i/MSS/1XVjDWmkxp/LLsurrC7trvlUMDdfUp86+lqYX155RmHhy+jIhb6xKQCYEsYM7rm0Ag4Adv75J/HxX0EWBJX0DcxbYWSi0IWBRcFeUy04fj7P08Gw7DvUpOrmhuuvIgoKsvIS/CPdN9yJa6Zf1PVkK4NfvUqsLC2obpAjEQ1p4bLst8k1ACrjQ657lTSP0xGikrKssjdBGVXcTphpIU27wdLx/97wDy8tSMn2OvwoT8akv037acqf/uX7LDiroKAqPy721ZsKeS1Fwe4PYQhwQ16e98kqyCoKOPwgntB0sP4gXoK2EKpDRcJHOUhb/mtoaEZJtM/91U8FLafqswDoyxmU5XmEVwGoiwtfdfqD0yPvPGAuN3bMqmd+CcV56bnPPB7+FdNK8uhmGydtYcQ7rY/ouFPa+PaYG94rgwUHT9FmAdDssdyo2ne3752E4vS30cv2vIGd1dSm6eKfTEJIOxoJ4F50PIDS5J3uGa06AP16COFqcGBGeXYZu8F6d6BYJCR1Jbm+95OzOE0DZ23qKKDK+8jdk0+ykvMrCuJi3IPLoCun1hjlbiXcloZaMt2r3UmLNDk+UctPZCaksdNiim+efr3Zo4MNYkZNV2I/iNtysyg9vfrhgddnMljO4+QA9JxmOqYqd/HKuOdx7LTE8mfX3y3dldiwMuWNR8Qpn4KEPG5eRuXN+4UKmrKqnbMaVS9BM27agIHivxzlNrQ+65IybdEfrOoPq60ImxFBF4SW7HnQ+3AlGCJSFporV0oBEHcefzP26k+D9ziJMaVNrX6bKL0g7yt4Llq2D8aQKwOf9HzEg6T80skjmy2Gpg22Un93z1O9qBaa+rfHWWo1U8qO9n0XeYVY7A/9sNoqPoC48r7R379BPAQE1XzWjxxFI3QdRjzi+rveuPkzh4Sq5lln+5HtD9cpmV9zKJ595TIBIWVJ+X02WmeftegHSFj09Uh+NOP05SUf1np1HZb6n3MHqfmGOLuFFkJIRFZ6orm1FABBxU0TzRK9fFkvaVJMiek2RjOy3/2IQs2w7NdP84W32/t+OwzHHVks+Lv3lZUnC9n1kooKOn1tZZqVsPYsp3FxHmecDlbXkY5uO116gWE5YumSsvNLDt2jMYWVtEaN00260zwiqTd1Va/jf55b/CcPdP5qq4pHl1euf8+rAyCI3Qdm7QYhr7/9vrM2DRar57hw7nj+fOQMW0jOWG/RifHaHcQd6azqAs+dF87msMES0xs6duVyjQ66yTkR2ybeSeEHej1nmXkCItNvrB+pBwAqo+wYNy9v2FotpKUy7dg0k2Yb6RBqkNJCyX0otBy0NTD+Uzhy6GCvEpaM9fZpvvZiAGBod3tT3swFRwiCKaemenBhj8t/NwqepNGpO1MUNj+cNsqPv9rK8SMNzlLecXTg/fG++p7q1ePk2vuclm/3dmgIKUnMcZtZtNZn7qiQEgERGfsBTw5Yq3aQhDFs47jZi7wNej6V09E8NF4H7i1EZPj28UsWeg20fdG0dKoDxUKobdplEbXVQ/U4rylJWzoKoMuQxdu2nF2SwwFDRGfYoOBNRqwvLudSduYPjjE3HY3u9ztbQIRhaiTlvKaDCI3UEOubO8I2/v7cKI9U1JTa+lf/BToAQKgonr1ivWPb+xnj3xXV0w11JIfPNWzw5hhMPPgrbF8Sp5BOs7BRcPvDRK0zFroMpYmQ2ErtWvmZUKdPdjVumL32wN23E126afy+FzXXkHCt+Z5i35qGPcU0fCBK+dTfCK7vgt3BVkt3Lm5z4l1dGBJ3Q/kyxJg/Qobzj51SuK/WtB3CV0pC8S1guyM1CLqnqMXQ/xN9aIpvQTkSh4M5EbqLvvWb08aigtswiEvxA0Gzgsp01KV3c+4zBUWbzh8Dypsp80xZaIrOIeQEY6fv9nYNL6oGflBEnagyoKDk6oeFinJTUFB8K8j8m5tfPPnUQIf6xCEbrESpEqKgoCw0BQUFBQXFj06bUW5enTBlPikoKCgoKL4X1Fx4CgoKCgoKykJTUFBQUFBQUBaagoKCgoKCstAUFBQUFBQUlIWmoKCgoKCgLDQFBQUFBQUFZaEpKCgoKCgoKAtNQUFBQUFBWWgKCgoKCgoKykJTUFBQUFBQFpqCgoKCgoKCstAUFBQUFBSUhaagoKCgoKCgLDQFBQUFBQUFZaEpKCgoKCgoC01BQUFBQUFBWWgKCgoKCgrKQlNQUFBQUFB8DehtXqBVAxVfPwNiVB1QUFBQUFBQfWgKCgoKCgrKQlNQUFBQUFBQFvobE7/tD8L5eVFbl8mMdebbCc+KHyfDifeuEO5vSr/Ow8tCvImdJ4mdJ4mj/i8+URqJiB+B6KGIngNey0vsROe97guz6z43B2w3RA9F9FAknfteJVx4fuKm365XdebWTPdjM823zTLb6jL1XmF9O7f9M3da6xvqohE/ARWcTyd5/8JS56+NmZ0qTzLk+Tj73YTqFkL/zNkasjvfTGasM/+VUN1CqG75oaT9q1CavHnKIUJrC6G2a8DL2u+jWD6TBr10rZhS4F0ptKz04T18/01q84a4c4HCIyIz6jt6EBdpk5D7hrLQ3wLR3oaT7eWFv9rzqzJiFp+6QOw8SRz2GO2fmtM5Q/nPSTfiZcknr4moaswykGJ+ndxKWI8hty5mD1dv7yYld5icbT3zgS4xyFjdQZTovDPw6W9kzYOJH6Slv2KVN5rVpn+b1h5Ia17Cuv3MLHUEO/Mo1VnLLkbu2LdWlU50ORslf0FgOMQ+vyarru5/7GU+MjF2c9EblzlCRHeeQagdjNxFZixaK/vpGS1RGw4Sc1910t6Er+US5mziUg3/99VaohfbDeQP0uTT3Hz3lmr7vtpUlPDLA1vB/6hi+Uacnnlr/Gk2mZxkY+rnWfTf/hZCTGLoOGXdTtdJ1O8PVebHA+z1DrdWPmjmLDMgPxLFR9AV745O2druoTx6+PWv93R2ynqPZ6e0bQLHq4rnxK7wfWgtOSXDQvJzHqlkanvhByxHQbl54wb+d9qqpNqiY6PUaHzfWlBGtrmT0M916ld35xNRnAmZXV/iUeUxmfWYqqkjzvqxCvlsXaQzzH+8yk9NqICezoivbD2/rmKh6A7iEmv2fRmBZI4B8xaK4qGo/1/oQ6eGW+oe31HQMjjw3l+vxz8HKuoBFD97PHX4b4TWFqL30X7/JvA9MTL/0ho3K6tdDX8fePRdZmMM4c6MncTs22ucDon13EUMPrPuZeWH/sKbV3OGNTzqyIckZMZyi+1WfwUvGXuIMNhGDPH4I5HbsSv9+9/8sF7rYFTVi8PuRqbbCMOD1kdjilv3SbhlublZ3E51CMqi3x2vVzg9ytxOQc7MvN9vekKZwTHvAJDZa/f/2983aOqx8+IHzhAXAu6U1QMAWXDwj1PEzsuL8mvx8Cqx8ySx859hCfxvyXx4nR+Cbh3l5qVFBI778wyx8x/irzvL4hsv5oSa7b227tWzsX+eJ/aeIS5HRNbxs12c8HqW2yXZvf8Se8/IX3h8Lr+m+7VfmzJ/x0li50liZ8soN5m75ffTg5+8XeV2idj7L3HC72xxTYff+M1gyRkqafD/KSvLCQEASj2mNfSq1+1vHeWuiTx3bbPjrlnmO1ZMPHv3ZVmHL+DGhx2dfmhu7+1rfvKMSGtdvlU3USsNcYWW/ly227w/ZbS2ENbHFz7NbX6ljRaUsdziV0Lt2O4sHtYcbhHlTotdNetvddNthNY2YvC/8+43Po3MWG6xXeMBm//T6xph6eHV7ne8WrWPUN1ifqkMft6yDe1lW3zH5SsLyypsD/qol5Fbv2cOh7BiE73YxFKOfxlfaZT8U0MMYR/4nUv0ZRO92IzD3A9NkkOe+5lDWLMJCzbhxP43vtsjKbwHc7YTqlvsfargdZ1QbRHl/rRiAYCyE6N3EHsibv7yj4b+NsJgF3E0vr1KaUexsPM8lh6T0dpC2J1YeOrWh1GM9/4Gun/NP+fl6PAbYbCLmBMYzO1KvIGdd3zyHsI5MKohFTvv0ppT6qbbCO1dxPRb/zZoQjL/iN124nT2B3m+eJ7oc82H2/XAxsV5twdubx0LvOhya8SxYgAor3Rb+9TS2EtE29vOJdS/8UYyOXvVzCc9zLxEtD1NRzw9Glje8Pf651GqPQI27Qqx7XNXq+f9KTvSPtgRLufGliBLcy8RbR+7qSH3Uhof9TraQD/gz8sRIwfeVTD0HrDsfWJHIkEWZg03vkOo3iG0Wke52e8yZ4+7K6ztaTo+6kkcr5MRKEIeYvIo74IP9l0ttIZiX7HiOzEtlCz3bU6iqspQMQHylZ/tgjel08fFBLrGH7aQO3FF9loBAHCqCljaG47OTQp2jT9sIXX2qtqF/MYCrUNQSt7GxRVvfsmZwzi09NqJhmorfbdg+r1z5oNeB7om7O1BHr3yIQnqwr3Sh7itJKPWeMinrt4b2WFERsN1OZm5O26ebKu/l1737PdvodnBBSl+UxZHvTlT0HLENebUYHVl1S3POlMwiZmFkJS3FG6odrqxphxKi8L4ZrLueVLVtNku5eunP2FlTrgVlQKAkFu3ahG5dfopeUE4TiW3Lia3Lnygx+CHVB2nkFsXJ/Ru3QWvT3k51Dutys4xbaXTKwtB9xu+q/L5Ui7IKz6ULnFguQu5wn5JdphFON94V1Ty1C1sfRdNzVs6+px00ZxLgU/quhuEFNQ6vW0xuW7IjE/EceqexOTZT3Yi10+/LZY990FCaUff2MXuY9hGZRbRGoa2TzcdDskZV3a4R60YoiPYqjDi/vjnxA3ukF2LD9/9efEUpu/6s89z231STeaZ1bdSFQdsvuW6YjIZ6JvPa/lE9nvQtNEiwsp79cul+QlyB3zWpLn15Xm8iWhUFm22IELt74hdZMayLSp0HF5PZu4m4+fyo9ylFZW9bdwuL0sKXhE6V+zBsstOsbzulYnNH7+QmbsjnSUwdExh5m4ycze5Qx8A77TTx0VPWO+K5Ad5sW+SgOdZXqtmeGoZd0sJeeuyUKqb0E/vyUFruB9sYRE2sFD4glVxTLDGvX7pW36Gr8/hzkkjPU4L5txhXFUkFi6oecLtnqzSh53dTmZuDxgtgslTyMzdZMavgQ1R7vYUC4A6XAv4Vdvh0dstNU/nXrWSaK9S2lQsvFe/XHCOFttxY3XacTvBZvULgM7Ld3sle+j+BvLppLmRT2yvFnTePJ+ddXoZwy7yjJ0ZgwDK7sxzm5mqdODystyAOTcVMxfOu/uES4KQd56mhGsRkY0e4q3baRhmPppBPHPW+7gaibUP+TdKyIqoSQAMhrYyk8EAgF42EvGxxeVki07LswRaT2NpoObYkoA/8+UPXR6S8tR+sULJ9LmvG8wnp5Aj3F//34v2KcHDj09hHVv88kJyo3xXFz/OVfB6MSr5ibX0s7AFZ/ij64F7A37yr9/wz6BYP7tpwgVOc4NjGy0xWVt8M1T6vP+o1Ee9lV9H777VgYNPyKrcjxlf/8pyWKs4E7dy45KQd6p6If4jLs0jz98qa97ymTIi2vJ0AIpKovJMWututDZq33U+0P19x6FlhhjVR77MB3jv3K6Pu5YD4H1oFnpoGoDrdzI4fvzIOz8Z9VCT0rPr/6ezFK7FZgJgaa3a4+DUV0VbQUrPrv8ORxEEZLA/KAabvyxFAbqi84C1ZPpS/1IANT4hl4W0r+zs3UtNStdx2NEJkrgeGtmUZJr9JDkhMCUmTtBEbFZEN7+l6v6VRAwbdHa4qqa65tytDgO6P4DAK6jkgims2BRkERECr6a0qlEIellNECEAloO9Yb+cdxeL67v3luDQ5HgtM3dLNXVJSWu7/oekK/8M4+u9eogs6GdsSCMgpj5TXRBpfIWpYWG7x1LbWkZcXlJ+5ECz8ex8r6KvM0zYy2q8hCDoosN7KCE3P/YLB6tNXJ9EtCL8XdQzx44GF8nS+N2WTePQhwLanx5QkeDjU2C9aapDHzk5FUnj6WMdtQuePGqvG80JfhlRKDvxV2sdNTGtMePH27XOUE0F6CqtBkT+9KmUXj58nrG0uqn5ieVN0bO2W1A7mNmcXtnb0UReW0HWasbQNdrl10O/8Kwi+qRDka3LPiLm+nKDxhv0pghavsXf+c2kOrV+XTJGbRacoE/TMKOd3SCIcFxtukEIV+YJyQCiNnRXEVx7Uw8AkXVO78nt/zCm96Qragg4HWCMqsDO17wv+y0dKBYAJtZ+C/T0GIKCiipOfRW6UynslH98KqWXj15uJaNuanJ4bYvoaL2AxJQV1mYMAor6LjYMBHdqvopkWd7xWafnfjDPQFTI+hDJ7adGTzORV1BXnbjXcXp23PZwHgD5SZb902L3NjhqabHHI1hTpmoD6HPo7vvW1Rj7dl1//jum/DHs6BQWoaJ6+cGA4aIAYGAhTU8tjqkDmZy9+ue3YVUgswojK0X6moJ8Hf9XDOPAEaNBPYXl1cRmbDC1yci7HwcALGvtvYtV+5mKy8sz7OaajlWoePKWb28JQdb85RpyAiBkpVc7ST68mZRYB3DLLvlVjVliNdVaVENXYuluU6vc3CshjQ1fkDlrqYacAFiqipN60yPDC7tX8dWv489nirnu0DfREOo5xtx1iADZzG8ymN332V5tgLXGY+iWj4bwhDSBStR2Vm1+13FogtG3nwJeZBZD0O1CjJe4dJST8IuYargoscjioNhaPHQXvtjsfiP1dEAVVeHHvVZeTHqew+F7IgM51QALAEGDmqwM/+HiPVQIxJQA0qkJJVA1tWDwC9GolwzuFr4DaQ4ANKjxd01hMOio4VR3d1QvNKsWI5T4vpa6rKkUPbD5DcYrQ2tWfolSo9lKijY2NRkDsiqoqBbS3ehKchKLeNCRUWp0ek1kGCgsLYW6JFBHF+7Jn71FZ9Bp4PA4ABPgFSTv8g05nlVayNd1TOe6r2GhabaS/IJkMmng1XzpuacMOUNDue5IbPNxaCGGrGK7IpGbnlGGyCV7ApqpVFWTUkCizeGNnBKehIpS43UlDSl6Wsu4Rx0EWtZ1XmFcvehgE3H+h+kr6aMQANprQW1TmnVpp8/uh9nvSxq7HeVf2KpBSt1Aqr0ZhbUaAjuMiDGXatcrN/Yf3tdXACMN+D8JAwExwD+t3lVeAADEoNbYtGUEAS4JgB1XDxLbh3K3N++O5H1hWW1bsTT8hQYT1Ral3Y1KySuMbF6/eo3129BJFxAxlmsoFjpTgo4CHrtBE7ZHXemhK8uq6jBPUb8x59z4ggRO9naLrc2LC/m1gCAUeywzuTf9ajJ26Of7hD8zNo7oQQcgqKRvoNSltmOg2I+XHZ0GpaBEd78ysWmm2iVFyaoSxpJIiy1OLq4aYXaneS4N84EeQHnlsR1hbo/L4orqq0kA5NQKDiDS8M1qjcWmribKTi3PrIdOYVlamaCdrgj/pSoSBiK18Ulc2DY0G0E1+UYdIAQ2t5vCnZ9UyVEQNpHi/9Q3E+Mld97qAXXodK/qO88Uk++lDPesyLfch8qWq6qTn2YovkwTX2ElAeQDNOxdSrrItx6nu+5pdbRw9vH5ng6KMkDUhiPmLVzQD0MLHKJTI0/qX2qEkqRB6EPBsrqvDehyogzkVucCDU2gvKoGdCFJkY/GOnh1XN7XqhqyxTTjOgAgC45cerJTxTr4ZyMbEUGwE52PBBE8/Pcgwzaq9N+f02rBkpCWd0XyaKEOalnOUEmD1vmqFHe54eqo0ZXMCZFNHWehj3bcozHAKW/X92hx9ydbUDthlVfbPWZGa1y6PX2CrjiLLD4x9OjST2uZ7tc677ST2ILrrdeK9d4ZEfJr068RS+lYXxswn/isWmbA8xVr7PeVNLGPozJdrZSulW6n7uo77M3c0pGzPUcMXxJg2+juy/fwDJ/xqeISmTBbF3si726SSb+Ti6kTGuZMPXPWG+CR2PpeVz/ykGMbbxWX6a1THRrDYwXXLJwhGxlc/ra6SNmohy4NqQBNTTEqsE+Pj1rW9Y0Be7KULt3u46DFALjrh/qk/xg6hGDQPt3oOqyicoDRecP7vVdb9dQdV5J363LCmxG9Fg2ou3Xq3T1BhaGqAiCkrXQEEJDy8ajw+9As2Nocd1CUAQBuSkazVZhkHRIL+PMx2PmhKQIwlgKgqSeFzKyIxlGod6FFUJYxAvFFK0zcWFUASY2TrcpKo0tatRZubm5udlmn7LauqixK88P4S1R5MakFkJSxojVkuO5lZuNbCopCCJH+Mq20QCdnxDDVZOjILWqMi5VFF3EhK9nefPHK4hfVjAX9jG1EBAGgID+01SfSaeDVsb+F3Hze+uluR7m79hZFdUWhsrdRba6QFhQCaqqbl6GEkgK9tLiw0X4VJFS0GodmKaE2voUDriBrzqp6ldE4rpVewpf/tltQO3GgF2FVmGY/Q1ecBYBTFJrVlDk6k4H0Mv5byvNaVTKdyQC4tZ/uA7T0IjuMcgOg2dD3MrC2aaGKoYAY4BvH/2wyrr4CcNBoT3exDARQg0tv27ZY7Lzc3JLPlNUuK5ZuVIqCrDmr6noCP6fchJz4z5VLGkYYmtoN9ZnJfLrK63pFPQCGvpxBWd7FNuYcMIb0nlsRd/pk0JFMuUPj+MPkHUS5PynvvXsIRzyNe5wl7uyiLhCU5htVZWGrCEDBSFyjoCw07RO19PodZ+hMEwctBgC1pu/mAAAgAElEQVSUl6TnNJd9dliji5AQWyasKa4qAEJWQkO49m0iv9GRWWVxVYL6Op2yoZzy6vz8Gk4nVLS8johsLju9Md6anszufFeXGw8BRXR6ceP3ttAs5WHqxcduc1f0UzDsr5F/7W2ZkYYtgwAY437ubeTvZ3E0IjSjJP1titcZr6EXUgBo6UkjJuluQT3AK/X22fyi5eyeiBejLiSkpOf673h4Rkj9uIMkAKHR1tNrkqdtjQjNKEl8+GDF7VI4WXzp5RwiE6bp4l7QkcwagBt1JOh+KyMSc2q0urLK7k7NFJMwMVoqkLfAM/JZXkFk9IuNCTWqfYyNmi5HBu9PLs4ozDzl9y5BTX+mdFMlstQkCLxPjeTWcnkdetP0geba+ilRS8Mz0ktLQ54F/ZIvusqs3bAtU8KYwT2XVsABwM4//yS+lbJgKslYVOScjs3Pq6wu/Vp96y59Y3tRbvOWWBgaqjC+qNMGMb0JE6SjD1+47pdVkFWe+jrx3l53v5hm7VxPhZWd+OBpfmlBeRUXAJh9rCxk8x5cS68lwU2LuBvU2oSI2oNMQ3MlwtJa6CiS/s/LKC4Jdt7xf942fWNbLaht+yFipCuE54nxAFAVvP/RmaZ5PYS0o5EA7kXHAyhN3ume0crw9OshhKvBgRnl2WXs5nnW0hNHbNyFzGoOh/chym3emh4aUq1is4tm0mKjmyyhwEEV3N1Tezu+Li2qbs7+Whhjqny7usucdt6QuLa69tiz2pS0+shA3u7FnHPlH9T727XDlXQGbkz4LFev64ql65XC0lroKILfvY/GFBXExaz+O/4LCSfdbOOkLYx4p/URmQDMrLfZsK+vvHb8RV5KekFUUMT+5d7nKuqb5YF554/XCbZWs/lBdQgq6X9Uj0YmCu2G2E1tpMN8E2KNFYw1lOwEUs69EelnwgDAsu6xsjdn47LQ2yHl+RmVrwPSty0Nf8kDwNJXoUcE5BbUA6j3Phh9u9liFLK27uy+yOdx3PiXiduuVAwZraNLAxgSzqNEvE+EXQ0pz88oO77lbZii4jTrThXJjdV+CnbPgjuhVYR7G0yULz95oZBDgp2cfvx+DdHpkGllAoQHdd7wfvf10BJ9LYVRozpWhwZlQ1v6i3e2ag0DyYTNiKALQkv2POh9uBIMESkLzZUrpQCIO4+/GXv1p8F7nMSY0qZWv02UXpDXpCloGGXu5O2pva0U2tprj09c0iBPkkanz45g/OrXe0AlxGV6rpiWMV+5m/llR080vHKb367vyareA01i5O3Vdy3pjCmTnmdcmztu/waCqemgN04+z7P7ZkjrwAy7Ot+wAadeQVR8lK1jyIfF0LTBVurv7nmqF9VCU//2OEutZhrD0b7vIq8Qi/2hgMDQ6T890GOAnTjzwKNLfNPzQmrnC0BkwfwZ/yjTBPRs/caQ8wIfavjwICk/b/KwfcrtxngFFTdNNEv08mW9pEkxJabbGM3IftfiBqWe5xwKJvncUuQAvUeSI9obQEi8d0XvdWN7O/3vvwC0+pbM6tnRou9PfeP3peLR5ZXr3/PqAAhi94FZu0HI62+/76xNg8GqpSsl71z/48K9nFpBSXENS9MxzWbqEpaO853y3DYee8Thai35eediJQipzj0w5p9tV5dfIEUUNS17ySe3DOoJDofoWZQ8h3BTZ4Vus8/ltOuN/r2fV4pLThmmq9+4HKGtFtSO/Ri+b/LqlV4GPZ/KiTN1RvRZ0yPvcOOlYRvHzV7kbdDzqZyO5qHxOnBvmXD7+CULvQbavoCw+v6w+evF+BpI3HnE3wHXV9jtXVMLzHNpmM7dGaSdBJ2O1l1r1HuLTjOK1nAnTq8BAZjhyWGGakdPcDnLYGzlTnPloZYHcVjYEmc/eGDc0lIOhHWNJD7PJ+u6YmmzUtpWLDb7XE67Xlkw+shKOeV5Sy0tdqWKfKHe0Y6jA++P99X3VK8eJzfdbZ7QzrtbFh1fVgmoyPZ1sDn+oZ9Ht5luonEjOG1cD5nPKi5DOTtk97RXBQSG9GFtSWWa6PFb9bITg5k7I3ctDIgrJ7U0JfvYq6kKAIDzzr7RG8OtLWKlxYUspxssMQhpWgxBCMuuGFyzdtqDt2yhEROtji/hb1c0YJP9P3Whv815Mo9NN+otf+2MVQ9aNzP89Je79u780NCDgXcWglQba5Z+XBsM0d9OWK3eGGr0DymjIj26r8TDlM6FuF+gsg6qI7sQiSPJTxv/9+9CDI2MvsFAzZd7FPfOjP0T9KZ1Xgv89yCz1x64+3aiy/c3S13LdiISVkDmHGQUvu6LsqeBPRw6s/E/TPVppL+G7ilqt6HPEMiY7br9d0z0rD44gPXfyvmre8TcnDMRc7q5B1y3dav3NeZWzplXs77xe9uk/nmU+oLCi1GD7QX/S9VXvAzFPaG7qPMpqF0/Kb4VOS6IXYSvFP1muyFmGIqLQfyvF6PwLCj0Qi2HEqjukxz0rLr3oXX9/xvmOS7u5JO0xPLa2tysM3+9wQCzsd/STHI4FWlJu46+wzCbaUIEJTuf4+eANIfqT11KQ/nhFF8fQhf6977uK1jzYDzv/0dpMiC1gJKpz0Jn0eOcRf+Z3HKK7u0MXJJWCYaIjL3Nk/2WMt/w5WnHTmv+UQA7K59NeixKcj6z5cp0ueX+L0W5v5inE3bG70zSJ6aQlPTu5TFelRI0CgqKHxQy/+bmF08+1ddVnzhkg5UoVUL/sd4NZaEpKCgoKCh+QKhxaAoKCgoKCspCU1BQUFBQUFAWmoKCgoKCgrLQFF+Dygun3YiXhV/n4byAy2f450bfTvzE9ZLViB6K6KHIfv0fKCq2Gz+3Sed+nEyl/m7fcArW5pP+NV/kiWROxFa7A74JXynDdQ+Xbd14MK3tGwrPT9z02/Wqrj00GvETUNG0PIx3Z8bOTp0V3Rnev7DSObIyqe7Hksb3/saaWwjVLYRu41nOFN0XylbyQ1loiu7avLSIwHF/niF2/kMcv7MsvrRTiSriJux1X5j9yWYspKWps0+B+XVyS7efPpfcOv+JUdubn9As0cMPyr0BgMze8vtplYiWxzbUZizf82/fdz9A42HNg4kfpKW/1vPJooitto3nTvb9bcvyW+HpHRpdTdeAHe5Rc3p3MVcVd93nDLuW/CmRIESlew0yVBP/XsUsotvPzFKna5tElPwFgeEQY/4/0gSGDjGpu8lHIy26enzOg+uEpcdlkF8xb1G/P1SZHw+w1zvcWvngh3EfuAXTLH3+jkXu7efyIyIzmm2/TTOBtDLyzv//NCrUeugvRn1KyDDvBCU7+7dGonmRwUNu+CrNn7ZF/nN8ICG7IfZ2P8jnEeL6EkR2YQXQzDxUViQQTGsZof8nVUz2/nXxZCtmTWFB4PFbR+bzdtxz0qZ92yyIaYzdofH9SoDVz3Vq14osEcWZkNlF6QeK7iMxGfmHUfkTRJn/3z79u1ro1HDLITHjXi7eJtfMjL3315uYsODV/PViAsXPHi/Z8/paXCVkFfouHO61QE8GAJl/ydX78NPs8GIuZBUGuAy5tMJIFeDv+ilkuro66d/37Eo5lbW7nQ42nq1W9ebV8nX+5+IrISszwGU4PwmZsdzS7eWc4daPgk7GVUDN4MjJSat0m/UpOWW5pWwhSQVpZoeb6fCeBifEKZndc9DRAkyG9T3w/tb6sMwtI9SR/kr7YtpQK/GouOxgDs3IqPetkUaGNAIlsSOPBvI38mjYmJpQOO06fp4wAbCvnnafll0PAI6TSdtmmzlXZJ24G7Q1uaQQzJ5G5qdGmvVhEADKXnhLhrH+Nar5603WW46gua29v4OmJADUvHkZtDk8w6eMDbpITz3TpiRdhKkrQUcZmwNe+PVL/RKlLrqOca4ojSdEp0gSAGpLknf5hpxIKy0E09TI8sJYU3MaAaA44fXPgfH38qqLQJNT1Tgw3G62vBCA/Ge3FaIZW+TZF9PKUsGc0N/ew1qZ2c1v/EbUicgoK2sBWtIai3o+WxYV/g7aJgDAjY+5eOhhSGRxLV1Mb6jD7A29lNrf3aEi33efd8Cr/MLiWiF5uZ7Th83+SVuYQN7Vs677Uht24d9muQ0giZ6DTl6wFyZAFr3dPeZGfBUAkek31o/Ua2YFc5Ld9/g+D8mvpYtrDOy3cKutEgtA3cNlOx+LjTavehUUUVItLDtih8sUW/6WziVh/v8cCIuLLwdLWNnEatYfjgbCfE8MlaWPNt2/8ziLLaE0/EOSUo9pR+69A1BtsmX7himNW0NXvPtt9C36MEvu6+j0fK6kscmcA+MNm9VJ1U3USkP8o91e8xIPzfRe97wcqiprDzgdtJUEgLTYVVue3IosyKgEtFXnrhvjNvzDUS4ftIG4RM/hA8/vt259RkXam+kTPK/MmVq4Qr/tPT26riXaTlJ+2k3iqtzzh2P7AiDzjww4vmZBRydLtvWN1zyINbENt8xQ/XUGAIu+Ed4jzQGAG+7mtdIt7nlOLbQ1Zm8Ze9aBrxCqQ14t+9X/XHwlGCIsC+MLf42eLNfdLkHuq4Rf9iTdjWHTpMUnLTbZO1dBvKZskf0jyX2T9ts3L8Din/oGavw9fgc92tC5cOkOiQcns8Py6g0G6535y1C3wWEtr3TbGXbsXlkcm7Dsr7Rzfy+HxqOkq++FiG0lb+yQuP5n0p0EnpKmrJtXP/uOVmkL9gXrd5SEQrT//zcL/V2j3BqKfcWK78RwWzSgtzmJqipDxQTIV362C96UTh8XE+gaf9hC7sQV2WsFAMCpKmBpbzg6NynYNf6whdTZq2oX8htVVR2CUvI2Lq5480vOHMahpddOFNQDQOm7BdPvnTMf9DrQNWFvD/LolQ9JUBfulT7EbSUZtcZDPnX13sjmB8NVXFygpWRgHPR/7Z1nXFNJ18DPTUISWhIIhE7ovXdBFCxgb2sDVta6FuxrW1dFlLWtveC6a28oWBELooJSlI7Se++9EyDc9wMBQWmi6/I+O/8fH0Jy5945M3POmTkzc2cQb6rEayMqmkGSxTvHAhMxleCD4oqO96lT2irPVUrfdFmMr7Gfnxuq+aoQAEBE68muFfgG2xkkwWVLl+G7VuA7Zy4R6PCd/POW/ozv+vGK9CcBxfrbt5+tapK6sMQxb7Hl2MLIET4pRR/DiTmHBY3fbFzW4KCGvw3aXdoRKeKWNpCmjxv33sUpz3mUY0XsCJ+U6qHUFklFkgZ1dcXQEF/RDsSa1+XtUF2XLcTQImPQlLvtYuBpmt7j5Y55i22dKqINfXgncdbVt8kbjniyfF7JqimXRSsW3XjzitsZxCvL95YembRxcZuDWsOL505ZnKHK+KVj4aht0vzYp1CUfAc5WVxXG/E8vZlLFBDqCIAnHVt7p1Rt9Oa7Gw9cms5Ke3T4SEZrv4FKvKWulq4274jzQd/123ZplVy5dP5RAwBIzFt0PdbNY58KSVLbLdrt2vs9V6/ZdDQJjKm7M9Tt6rMZip+GuKs9t1yL4Giu9vzlwJ92wgm+h93iu55e8CaMtnzR6eDfNk7kPv3dN68jqNmSf23nK47JFPfnWw/c+Gm6jQD+UXC81D8w22ji9lsu8/UbfNw7kwDD8ZbbtfdrxinzfSYZJymifvalzecC1o0TSDy+Pbz7EatNyUBUgk9aMc4F//fn7KZlvl75aiz38BKvIzw9ras3Nb/g6ZLxbk3kYmE/F8+5nech4mFPDZ1D3062j3jzS7b3TBduQ+5Q3PNQrURfSYZAXzLOdcTz3fEL+sDSupm/F893x3nuGXLOXDY+V2fvvijj3ZrIxQJ+q25u75h3x4v2r3l62cAuPGxric+PD6bx3Hbb+bmfN27MbG8sr6fNFFRikQBAUkqIReWFgPCCghXL4yuNdEJeTfbbxYo8FLr5TgNQ6NZa2IeEyh6ll1USyxG01AEAwFsr70aKXgmYnP3CVDoi3v1ehwK3nFkZeKKUddhzXNZrmxUSVQ6LI9K7RdPx+rJ9VxqW/Tm+MnHyU1e2OG+0wCcpSaVRgUKhqMqSPx0qU4DKgObo/2D44N+dh2aO02yPfVsK0JZ0wXu6VxF0HP+spaAOnOd/vkudMenBT5paciKq1iNPOImAV2I+APArrv/ddq6ljJKEiKr1SLfxghCY9/HAO3Pzk0ZCACRJp1Gb8NxVAdUA0OIb7klWurXH1ERORGW8/amZDPCOjO1KMt/mB3EyUOmzZipAYkHMEGVpLm3AgdoV7yUJU8lQX9fhpdqBumy0tiIRgF9ynakExKeGDu0hZVlnCsnL7K2mSdBkJdWO2CpAetKTxk6DyC97xIzFABBQUJ0lyPEuqO/4dty4UUvVZfTowrKS7C2WspCdHzWkh4szhaG6Oqe5IqRRbJMy0b+gNq+mERhMRYCS2NijAuohU7XMmDRZSfbWMWrs5ERfLg4AbMMRvxspmTFpLAZr0mj9GU2lPhVdGZbZZ8aiAhClDH5VbL8Xmdc8RBm/NGI/xPOhSYHrXRfouy4YeeTU3SrWBHsrNgBA1u2XaazRqzYaqsgxWOpqTst16l4FZfZrwTGm8vyt1sYGMuIyNAWr0ZNHEtNDMocYeU8IC0/nn7hlrK4ynaWnt3C5RmVQUDzv5FqukLXNeG1BAIL2FE1aRWFuDQAAXldVU0+QsVKSFhdkKUqZOlp1G/XiFAOLn36Ql1aUGLdQl1nJS9IvTWqOduoMALLwOGdjYvTbmOKPv7XUAUmmlzSGlo+dVRXlJW23TnahFG56Wg4AoG9+fq3peB2WkoSYsaPdRqVa78gO78B5eCIi19YuZo2hiZwIW03l58O207pnICfKYb7PoNzzkK1Eb0mGQp8y9lW/WX+cL1PYO2fnGBklCTFjp6lHtar3Py0AAGiuz6jAwVLVlCXMUpOzc7DsGEAPcAK3+kLLoH1KAPwbb9rtGN3Zv3mR8UxQwnWHrCqbrDdVd89MPi/vnLJ20NUS/hBTysGh2D/O5XheLQ4lSZXFKuLaggAAGB91wSq2OAH4ZSV/MCXFRpcDAB6RejKBcuiY5hg9AZacsONWXfO8kmcp3bun8JOrsa0imUolqY2W7bgVUBjHn4xzVgKRSSYhf2t9Hgmg0KE1G9r/cx76X41yYxRLKwkIza8EvgtXE3xoou/nCoQmNIKzFD9eGZzYCv7XBK53u15TPhdAFhqiPXzWXs8IKWqGjoPBRjc3AvADAEYEOTGeimI0LRkMEqoARLPTqkBW17AztKtpwoTH5UmAGwAAEEGO914zCoUELc2N3Sf9lno1Lf0GgrbyCesyeG2OzhCG5qrEFtxyCK+hr6oI4hNyFuPdCpOSmNCaH1bdvkSACAAgxC9N7LgnUYoIhW28fmtRUvjWN8nXKhp5p1bwydVwcSB+8dMxccaI5sKC/NJHIlJvlfgOZ1fkQgMwGFIAoflVUFaotSeu29Vi1Q040LC2ssy9T8I9CqrLecMhqlPXGFqIocnLBkmWIQD51UUAikOS8QuhiGtoiA/BG5puWTnbGArevnrwTmq5q0HH2YW5aWUt7wNWGwZ0i8qJ1TQD9HdIYEPs6cfeTzKKippb2wGgnWLbOrS2VV9UWUMQle88g1REQZreHlVUCIaqAECgiwnzdRQXmcSHtTfWAYgCxtQYM0r4wroj+eZKKvryehOMdeW6upYYXVGSl0SI2pWkX/ilZOi8j1IsJl9YUSFAZ1SznQuEz5YiYkRQEeedQMfPHKlEOJNYBcCC6oIbe3zd/QuTqzqrtbYNAACvDM5sh1WKvXpfArf6/Aof4AoqqYkPyj0PwUr0kWRIY+g+ZOwzKl4cV9WcveRgD3VVrQcA4JdfO1vMc+NppXsKY43lJk8ynKEiCAAgIq8uIv9luUpNqhVQUlXpXFShpklrCqrOawcNc3HC/coELiTeyr37oWzOUjlCeKWCpoIcoWM1G59cZ0ifQoYmThsA5CRWZlY2TNR/0H16SKMUQKuz/IWEjL/8+EGMDNAC/z3+5ZViLBNpuFYQG8fxlzZa35j5Ok/ybQ5tjTEdoBSACPt6mdTheD80PlW+0GPpQ1tJJsD7rccM8nvMFX4c1WKDMt/y30YUKksQg+auNtRW19wCQsK9z5J+u/OdcBhopVJV4qL78fW24zPN5BSJAImB2MOGIT6MwdTAU6NSsCpJfWVZilVkvj8fB7Q739uqat3koP1pdAovO3bj1R4Zs3frNM0F+aAp3elYMPZRfG7zN5FxCFFumZEHiz55OFnxUV3mlP5WvXEFpaWkNUBaw6kleb/HafbeTcp8GAAQhCbMOntQd/AZKLl9+8Tdptn7fh5vwSRjELNr35na76l3fFbuG7UWpMdF5ET5vj50LsjBs8fE9hfS1k/ngkiB5kGIRsEA2sJ23/wxnn3jvsNMFRo/XnnW7tSqQeZgjXNM6yvDbffPGi1cOaiJ2C+2EkNK0ktRDUHGegJ9zvMNXlqf22qKxYE1tYvSn4SmPr0fPPPE28nea3yNqG3n5wov8/5Us0z3xITvNPjS/PJrSBrVv49LqwitkF5hVfwyqkkkvc1ggWT/qYhyku/fWPR1KjNGJgzh7FxuAxBE4b/Hv73bSk9lelXJPc+0DxNNlo/i3juX9JRPwk6WAJiosTIBArMqPkuRHFkAI8w9bCWZAACcrLy6bpaXC+llvI2WTaWRWQTQFgEABVURyC+I4fCGbkmRFSDN1BzMOYXNNcXFxZXNg9j8gNFMmVQoLuUd5I1XRZS0giSzY2hDbq0OLOE579KSKuiYu+X1kYgCMGiFF2Fat9aHl/NiPXhRhR+fQNfovHeKCv34ZH41k1UkAgCUVlR90kWjAAHa2ga1X4pE16BxvDIqLRXESGJM89r8K5XYLDEBAFCWFYHiopfczwqqvjK0kbLMSttckA8AoKw0snvvpLo6saUjSUt8RWPHcHwoMn6vKPdHLJeacX19Q3IBAORVmZyExDxu371gPm5rz+5/Tkwe1WzU5BFMMgYAnJzCps/jLoPMiZCUKL29MrfzAPmq7MIarrCU9MCaL6KuNurH8RtuLR0tVxsV/DWb7rmFKbzknJzc4hZ696fzS0Fr6qfByR56WhGc2Q7KDMBrQ6MaYL6NowqNHwCaKyILOtsKJjpSqXdrAADtRMaaScoGG2Z5yOSt2vJu4H3WQ7ASfSShUknQ0tYZdWvIqOjZBqiYIM5t7L7Mph8ZPw5Ben4jITmC3tBPJFxYXWXeokmXH/7sodT42K9k4Ch3r6hp0hozK7pmi1OTavllhOQIgIkx9GWbg67nZqiIr5ws9s4vMyKdbKXTX5dZQpPGLquJzPnGnqKpDMj6/8Hdwf+2xPzS9vKVZ+5z1lhJaIxkl3rF1WiyR1AwAMr0daaaAc8NT8VE5lXlxmX5XPSxu5oFAIqqopCQ8bisHaCt+pHvb6E9bV9M6OSraVm5xQFu/hfJ8h62DAAgTzFzaMmcvysmMq8q3d9vzf1qmGs4mO7kF6wUA9JoCyX1ovcLQrPjykte+oVuaRTea8w7CAuD1nsv3vqU1Bbkx28LLwUdNcuPaiykSGn7O6GguK2tecDniCu6SLf87RfiU1KbX5zxS0A6KGjMFui3qyHC0G+t8ClpBoC2suRt4aWf/K7NFoXs1MuFNSX1jdX9ZwAT0qPj+TV8EySogIlZizZlNwhZ0vkAQMLAYGV79hSvqOcltXnl5W/jY39+kpgFAFS6NoVzOaesGQCaSq+8Su1hQFuLf3yc+KGmLiUmxC2X8IOJNHVoMg4pym3QE0MNDZnBL3HHVEfaqlU+upDcioPizLFqTYlnfgtNyqguyyp87/PqzP7Yxo+dFSlNVf5Un/Dc/LrqWl74QkyeyUmIy6wGAMj39fGP+dTpCtSUhIXVtnAGjuth2uZm7Kanh14mZ9SUfvhw+VyKsK1158LsPlxURcatY28/JFVVl9VmB0allJCkFb5mhzU17eadgOjqsqysG6diCcYmht1WbgvZAJ4Dn/dxY0Kdr6RllpQHHHx8hiN9eKIYYIKaKmQISU8FAGh4d/DFxdquVJQZK0zkAl/pn4qLzKsqTc323hv84tNyYK08MtE65KX61cKBczwEK9FrEl1p9fycE9H1AG1ZN0I9mnqKyZa1oNWcupKSWVpXVdMKAP3K2JFETKOp5FJARXOXLeBX3LxUCvbfcnqQnVlSlRqRdM3txqa3rQAATVnHdwTdii8tKqlLD47wzCGAligvym3wKVpskf52F7DHKdvUl7i556fltHx4FLfrftv0OcriBACgjtQhPbqbpzyKJWEoJ+CfHiggotNv2JHfTGutafM2l8j74bWlefURgbmuq6Lffl3YEE+HJg7QLFGU+/tDtzQSgBbZacpEkNYYQQpNGiHXMd+DmU8Mvkpe+buf6dF6oAiKGCqsXSsCADSnGXcTb/809ve5wlRRXeMDs0SXlXRpKREmG8x99FDJtRqUlDZ5zOKFvBia5y9NpOx8bjqqHmhMvTXz85ZKf3NJCIoj/Kbia9+80nvRBgzWqtmTujZDc/jEN2txD125HdLGp6lrnTSm29MxSRc7tfDnflJvuR93W6UGYreSeRcU3sH8AfjkfLdMmkwUmjdvQqZP0JILieVAZasavp2mJdV/tqQMvGwrF97yxIAszWDtN1e8FNRjeEY3tLyZ+cLxvOdKINg5/OSn2k8EiizHEACqmKUoAYCsI8uAYgHFjrlYfvkTi8fIPQl3uhBZDmRBMdFZBmYiAMAnuX2WfrrPE/63RBEq3cFc07EwqVuHQ+k0X9rYM0HlJNrMcXbnFTv8ypfL+G9AsZ6n8+A335AlGjZszQ1n514/GXDG0a+GSxZXldKbrdJtNE4ctWVm3MbHu6f6txIlf3m30oAESksdHQpuHp2yDxMUEDMaZW+T5tNt+IUZjXGcUeK54ciT5o+7rWLcDxy909Qx+5c129UT2im2M88fNwJgOByb3/b702MObxpJwiqj7Tft0sZRqM4AABrLSURBVOm/Q4OR+fC8D5dWv6ipaCVLSOqtdnawGWBLe90Lz7Vbktu4AMAH7ocWuAPGUtv9zEkJAIBkMUclZNepi8WYtJH++n1W9G79fr4JIHQJqkJAoNs+GYwI4/Vn+/so764CWflNF+b+Ik4AoEzYP3vDWh91vdfiNKryRIuNWiVHu5KMmhR7hbLy98emRzt3W32eSXUz7y1xkgcebLdavk+572HeEKxEX0n0R11yyZk0/w+MxRgx0WSlfJpHjwfJ/XpqxLt1XsoX2zq3TvUrIwBomF1yzpq//Dh/48fdVmyXhVFUn7WHrisXNQOTrmWssU2uo4QpwkWJu38KTOnYd7pmdt70oR4ViMnIXP5Ld8Ou9yOvtRBEaVPWmR+ZzVtGoWfOLPOuG2tJBjHJ8Wrt0fzi2gPMOpFdzo6l7ond+3NgSi2uqMCwsJGT/bqhYNNz4MoBg/0f9ND/S6dPch44HpypOh93UxteZZwbpnijcMe6GUu+8UDwH6ZqAxRTQP3APxRnKQ26L5HMSlxm9S0bWeF8aJoAygsB8Z2oSzowxVP6yB5nkz4vaTwPuRGgcm54vB5pCFZiuBqW/wocyHEE8jaQMv0PCo/e+onoG24MJNpD0f+T93In2ENlJWCo2oYZAgtAwgRam1FJIIZkhfJAYC6wTP+b0qO3fiL6QOQYiPz/yS3/EtBegiptWEIBkWWoFBBDhKgC4ir/Wen/l6LcCAQCAZCTeOCv1LzPvm7H6FPXjZ4kjgKHCOShkYdGIBAIBOIr6DPK3cYVQO4TgUAgEIh/CxTwQSAQCAQCeWgEAoFAIBDIQyMQCAQCgTw0AoFAIBAI5KERCAQCgUAeGoFAIBAIBPLQCAQCgUAgkIdGIBAIBAJ5aAQCgUAgEMhDIxAIBAKBPDQCgUAgEAjkoREIBAKBQB4agUAgEAgE8tAIBAKBQCCQh0YgEAgEAnloBAKBQCAQyEMjEAgEAoE8NAKBQCAQiH8CUp8/EBsB6v75DAijOkAgEAgEAo2hEQgEAoFAHhqBQCAQCATy0MOemrNT3LDzhd/gTng6pE6EeDuIXwRtw0a+pgsQbwfxdpBxebhkCY/2czFxXaDvukD/TEjlt7ln3QvPRfY3Mrn/TI5b0o7YbL8Q2rdERTG7rA89SfvCqrkGycs/NhU8a7XWbrZf07fJ8fUrmIXXi+GmbckB2go7MNkdmMrJbfnc/wfmAY+IV1fzf1b37+WAAzk/QPEHZKmRh/4f5c19TOXk3j7NAVV/rO4WZYHB3+/91j+wxWEVff0sdQ10LnUtJKgJf4Tt+ZP3d+jaSJ/Ydxz8u4rPvwR0noOo6D9mwipido3ocLeuCywP7Fh9Lzq3pf8kmJH9mUi3qzctmQJf9qy6x9cW2Xv16obJkqoWtmo07N9pY5iQqMkYDTnaF3UNoeQu0F36XnPyv4iGbUK2O/5ikuEXKsEASvdNOP/jvRnnm/DMDHPd5w8rvnfJvD/iL7M0FaBpi+29tX7dmjgFWJOg8hi0IlM+jCChIvheUCw3zLL8R5/AJ3F2sc04Ire+OM3t8bsRHGrhHA2p/61CxE13rphtTG0pL3vjce/Y0ja3p3OViN+3GnVMluv8ewUgzJ7mxv6yoZEPNFBBUhdpIGIAqFOBeg8qUkFSDRUG8tAdFjdric6V6Jkm8sHxPpWtoK3tfXLGbPGOkX1b5h1f56PxIUWtoCS7ePPMCxPEWq5foVwRCfGf1t3V1Vy/yLjNjnk01gA40Rd81l5ICSlqBSX2wh3TLtmK8S5qip+p+Qg/NknrbsCBkHKcRh97fMULW2Eozji8yXdfeFkVRgFl2Z3uDnuMqB9v3VxTXN1EZkiIUr9mzNRwefLBRe/bAQB2r8KXSnfP+xO3u7/cyUmuB5ARM/15RrizHACErd9vcacBAAAeick+AgBY4oy7Dag2ZJYYQ4WIgZjYyaqCB8EZb7nqs4gY1BWcfRy8K7OqHKh6mgbnJulbULgB3jfGUEfhUxW7JW8L9LxqyxiHT5Rvrcrc+yT8bE51OVB1NY2uTtM1IPJKIP3pLdVylUDN2t9fZ/g34KBomrjAUPN7tReuIFNaWhFAUZS9XC/I5X10EijpAABwUhOuH/YPj61sJQmr2tku3Goixd9vw0t7f+74u5QPpeVN7Qx5hVFrZ8yxoQNAye1Lv+zPxnAAAFcjVwAc0xvz51UbAQzag+4sWRfXxgWMpbb7mVP3nkFVVMDlP6LiUmqBLmaycMrCn5QEMADg+rvseSk8xaAhLDimqlFAbKKb85wRgl1J/joUlZJaC/wC0jrGC46PV+cN9Ikt2Ql/nnsantggqKK8+NiPhpIdIYQ496l3UhsAQNDhzpZJql3j/aQDU+6R7I04EfG5pRyGts6iQzM0GN2a2Cvgs4TPGrB4StSio4GXU1vBUP/qyekLZIkAADmJ63e8uhdbllcPoCS7ePPUCxMku5JUBr1c+XuEV0o90Oh6E0ZfOWhm0POeVc99LDZn6BxfdNeW0U+X4YHjwZlk3Q2NGX8nN9WLy2xyn/vHCKG+VL5/K1F7/gL9tjjPIOClx0Z5bFy2Cndm9VPzVf4vl5+O8U+qq24jgbnGsb3T1qtQBlK6vgxLtwwzhWTHjn550OxrnBs553XKzMMpz3Mx44mqF09qqHS0sdr6C3uizjytSWnCjEZK7TloYtvZ8W58Gi68C7/jRvc+kfEgrU1KQeyCj5WNEOAF5btdY64ENpQT+W2nKhzbo64yiDASxgJhFlR5g+RvyDUOE4ZBlBvnxr6pXeC9Bf+w8Skjfc7KoNSO7988Gb01rXnd/MzXq0N+4Lu4+tr6xDayibxKQXFwXXt3vxIbXALasgYAOWcuG5+rs3dflPFuTeRiAb9VN7dndIvi4M0Pj4QWLZlfnrS7zmvqahYZoO31bq/NjYoXH28p9l8R5qLBwnvM69ZdX6Yopa4d/JWTvYILH+/B8zd7GPB9aqu8H0++3zbv8qqid+tTD4yc0Rk7NT/+K57vHutEB7up5fnueL77INxzT1UnkQC4jQAA9bdvP1vVJHVhiWPeYsuxhZEjfFKKgGTEFoXiiqQeFVH1prR9hAILmnK3XQw8TdN7vNwxb7GtU0W0oU9GdfcrixJ+zBLbu2Jh8xaHKDMWdQhFkvCnNR8R+wTa+COl7YNLX1cb8Ty9mUsUEOrwXknH1t4pVRu9+e7GA5ems9IeHT6S0dpvfLOlroFiZv7zXyuOPly3Yg45cNt5/xwAAIl5i67HunnsUyFJartFu117v+fqNRsBDACAYD37UrSbxxENYk+twYtiTq8PqtOd4Ppo865flbL+unT+UU3XrwVvwmjLF50O/m3jRO7T333zOhpkS/61na84JlPcn289cOOn6TYC+MeAPRZ5I0xppZP7NQft1uRLx+I7BMGYujtD3a4+m6HYS4ibkxRRP/vS5nMB68YJJB7fHl7TJTsHGsqAqv15Vyfq4gdx12XZfgvOEJKcVwbGdnxdXVdvan7B0yXj3ZrIxcJ+Lp5zE3mNHw97augc+nayfcSbX7K9Z7pwG3KH4p55Kg/BWSXbVtR9+LVoEeXwKq+zZe19qfwAVuLLqappZTpOePR4XXHgoifs4g0/PvTl4P0rXZ+GJTti4eakpnVOGWGbci7NcNMkNwIAQJCTKvY5m/x5OaCLCcrRASgUJWkqhdKtWFqrLng1rzk57t1FZWJQvPs9TkdbObMy8EQp67DnuKzXNiskqhwWR6R3N2v1ZfuuNCz7c3xl4uSnrmxxDABaj64KuVErc+PxhARPbWZ0wuwduV1zXlSmoBKLBACSUkIs6qcBKKoStCahQDcaQ/fE2Wa2OAFAcMI6U/XJ0aczRp5Uxl/fTMi3GBU7T4UJoLhymsf946tuZx7frWCPvfON526xqL6+yb/AafpWw9roBA5skgY864/zZQoH1u0cIwwA4DT16L0jDk8L9q2W5xk+4ML86ZdsJQEA1DVmAAA0FJW1gpqKvSqNH0BCXtzs+8pdnFsJ4vJ2xhKSAJISItu/0W3ry9LcwktA0syKiEFZ1plC8rKlVtMkiAC0I7a5xx4mPWlUXyLH0nlZGN2CazZk/RZQYjXZYlJLZXQDbZYMuSQ29qiAeuJULU0AANrWMWpnbyf6cpV/7BxGAyZ2YpquOQUD4DNSH9KOdm2HG3EjKpt7ONF2Kp3NGqDLSApc7xrY1eOfOMOKDQCQdftlGmv00Y2GdAIAMJyW66zdHZT5q7J63wFwipHlIqPO4aSDreGNE3HvW8azyUOQpeBFRBa/8o5tOmwigOyUOcEfzt2JqZliQycAAFfI2ma8tiAAaE/RpHl9yK0BOVHA66pq6gkyVkrS4mQQF2Qpdp+MaFZ1/MHOgg4gNWW6fPj9/ApcR3KAEE6TmqOdOgMAhMc5Gz9Y9Tam2MxGCgAAL4U2LlDFe0kzd8IhSwkAiVXulicnx+5LHO2lRQJ98/P6nRc42m28fOqXyErQYgFwHp6IyLW1L19jyAQAEPn5sEr3m5U+fmCxPWtQ7pnXCTU/aSQEAJJOozYdvrAqoHrlXFrvKt/VN+3FSgxlgkNp9oSzvI+iE7dZ23kFXM3gTtEi9RPn69OwlFSHkejbx7CVxAnAEl7cOZNgcfhx8ubGnivxKCQpBd7HOcft5wAAyHr6yfYYwvKRnLfpj9ECAK0lpqmHo8thjgwekXoygXLipeYYJgCA41ZdL5vIZymwWqszey3wk6uxrSIAgNpoWQDA36dfTebb+kTLShkAZI+tzRf7NSPATX6CMACA+kLLIAAA2HjTrpeuvQJAFLTiwIch74g8dEe7JMrLifA+syU126qD8lpAuSUxvwUspZi8a0S1lPkhvawSM7HSbz2TUAZSOSceJUYKGW5V4rwuZf6qIwA5xXFVzdlLDvZoWar1HxUNo1gbf2KqBCfMVxfZclsgReEnbSmzSYaLLCW6x0aFl3o1Lf0HRWdPMbO/9MjKumCyhayVpabzJGUZylcoRmveD7+f432WUvWcrq0IAFUVQXxCzmI8z4dJSUxozQ+rbl8iLj2KkPa6vP2H4uR9yaV2ukYT8aKHwuJbaISM/CooK9TaE9etjsSqG3DoWh4lJm1I+UoFpstr6MsPIeBiumXlbGMoePvqwTup5a4GdAwAIDetrOV9wGrDgI8X8onVNAMI9n2jioKnR575BxWW17UBDgBtOpwmgKF46LKcckxeS7Kzb8HWEcPDCipwoAMAEOhiwjxjRybxYe2NdQCigDE1xowSvrDuSL65koq+vN4EY125rkeTxBXpHZ8EhEjQUtM68GInfikZemfFs5h8YUWFAFK8MTQO0EtdEUFbskvpjNuqg/NaQYsE1QU39vi6+xcmV3WO0mrbAADwyuDMdlilyOz18SUJTqu5QJdfrio8SJUHObFO1aZpyWCQUAVA7FXlK0CN2aeV4B/KRElKwiZ3/yth5VUdA16C4KTmfhP0Y1j09PcrhP8y7oSfhayRpeqCmfrmNAwA+KTU1Ie0AIQqJ8f7RKNBE6cNAHISKzMrGybqP+gugkYpQKeHxoSEjHsG2JoK6+IIgqqd6sXQoOu0V+aVDur1UBgFgAvtgEAe+iPdwmUD7IvAgWJpLApRRcXU1PK5pvZx6XFx8FBEYrEyEbKhnkCf83yDV5/dYZLwZ36FMWdeiXVBwKuMgFdxLk5vXbYvwZfJfz/J1c2eRaqHv0x5F5L0587L230m5V2ylB3y3fgkji6xmULAyPyCbEG+vsuQ2OHCrCU4vxVUv82p+9lY9q/0wgxSGUjqGgFEA4CqdZODdp/haxKR+pWCJ/xpbeAS3NbTEgiPO5zu90u/w2iuoLSUtAZIazi1JO/3OM3eu0mZDwMAgtCEWWcPDn41VGvooSs+ORoul+frKgsClF+ZdbTou7Z5Piv3jVoL0uMicqJ8Xx86F+Tg2W1q+Ytp6zMsSQMCALd2kLcJ233zx3j2jfsOM1Vo/HjlWbtTqwaTjkifdfWHOUeuO6wPHnNntMHgHOXHmAHG/bZWol8LUrR7mfdxbbuwYBMzFhmq4yYY+g4clOrLsPBLb/TfNjU49WVk2r1zDyw8Er1ezJ8jTAhyUh11M/3Ti395jh8eP0DuKL0Wr5zk+zcWWn0EDDAy4bNU7UPuP7fVAlDQAuLhw7CYh4boUt7n1KIIEsNajgwgqCVLhoQi3l4EvDIxowlUxJkAbFM2JGQceF1v4TBiLjH3r6fZoMW2AgAJyRH0Bu/IL972yicpY+c4av95l9i5DPDL6jG/1VxTXFz8STD2G0Olm002W7vvp8Sj+hCS/KAF79F/4nzRFDiZzWSoijF6uGcRpnVrfXh5e6eBqvDjE9BlEAD4TSRomVlxDypFZlkpOeVlXi+oBQUJKoCyrAgUF73k/pNSazvciIuO6UlU+F8LWYNukJZLzbi+viG5AADyqkxOQmJeX4abTAJoauV0/6oiKaFOzdFeV1kQAKCurKii9TOjNtjJOHG2GJ6bU9zZ28iJL8ckZZgD20iCiLraqB/Hb7i1dLRcbVRw+VcUJ7cwhZeck5Nb3EKX6lyNiLGAQgVOXi8OMqG4a4wYRWLMlOMDvDY0qgHm2ziq0PgBoLkisqCz+WGiI5UIEJjV+94gMdmVluz5Z6bOSA4w/Dt3UCqfXsZTtKbSyCwCaIv0o/J9WwmgUknQ0tbI+6Eho6JnG6Bigji3sXvNlxSH5wnOWWNmxiIDAKTkJ2KfDVo+UboBDAtFdaTuivWznj+ZYV+ScSqey4tyf9K4YxLjNo8cStVKaNLYZTWROV+QhF+artPekNZZEdXJNfEEfjnWoNJyUoEgCWQU4kYeuju3/baEluSkph/ZG15goL9amQhAGu2oLfQu1P52emZJeehZn1VZInPnyQMA6CnMyEk4kSLuoM0cawGn75aApRwTAPgVNy+Vgv23nB5kZ5ZUpUYkXXO7selt/2a24dGxx3++KsgsrStLSbj2rgZUxOW6/fzlK8W4H9KKYuILO/6i0ir73+2YeefZzvvJCXm1Jbn5Nx/kAVvMqJtuKKrSIDHlan5jc/NXLFUTV3SRbvnbL8SnpDa/OOOXgHRQ0JgtgAGAsrI4pKedFJE3F5KaTc5zKyQvk6EBgISBwcr27CleUc9LavPKy9/Gx/78JDHrG1c5XV5D36AnRhp9BFF7HzqojrRVq3x0IbkVB8WZY9WaEs/8FpqUUV2WVfje59WZ/bGNnT0MTFJeTrA66GF6WVlddW3HiiwGm00pCE2rwQGgMfy4X2rPUaaQlKhATUlYWG0Lp2XAnMiMM5Vtyrh+ID4nvy7bz9f7ZbP27I4Z8b5dVEXGrWNvPyRVVZfVZgdGpZSQpBVoX1Ga1LSbdwKiq8uysm6ciiUYmxhKdItMaAMnpJdhp9eLLaElJbnZHjtCU7T0FmqRABPUVCFDSHoqAEDDu4MvLtZ29dIoM1aYyAW+0j8VF5lXVZqa7b03+NO3lEjqXXJVg4MPNiRyBs5xTOjkq2lZucUBbv4XyfIetoz+VL5PKwFkXWn1/JwT0fUAbVk3Qj2aenYr2bIWtJpTV1IyS+uqaloBAOhMVUaDd0hhEwBUF3j8EZ3XU7d6Ubp+DMv7sMV/xQanVRaXlEffjX8pwBwvR+BFuT9p3AaaOhJDickDv5nWWtPmbS6R98NrS/PqIwJzXVdFv+3XIGD6Cs4arQd/TQxJac6JLtpwqlB3ooKt0KAeV58GAmPQazJQlLt7eyKaLFbL3f63Qk4rWOh7n7ThTaqMmvRhT/uCE7eUt7WCrMzc0w6XtagAAHQZazX8gbb6eAD+ccpyZ6oUtHmzy2yXhVFUn7WHrisXNQOTrmWssU2u/7ZGYuKVrjsurSxqBoqgsv2Yd9s1+b9CFEJzxZ0Ff97p+l9A6VT8otXvHhAdo3gjrFgPbDcAQ+1m/AIHwKhUbuhpX/et1dBGAXONv87ad99FRnOaeDrQe431vo2tg9xt1StC8+ZNyPQJWnIhsRyobFXDt9O0OubIMCmpWW1pWSrSDOC3VKZDEXGUBAEAgF/+xOIxck/CnS5ElgNZUEx0loGZyPBruxTreToPfvMNWaJhw9bccHbu9ZMBZxz9arhkcVUpvdkqH+MIwqo/brU4cchz45+tmG7H1inqqC1zMnY92TLyuaAoP/sHazP23e6r1TGjMY4zSjw3HHnS3LXbqvzKrFMvMngXuBq5AjTq7Ni9dY4gJmW4/lD138efuU2tBbq4/s9Oy6bSB2jzZD4878Ol1S9qKlrJEpJ6q50dbAaYAo9xP3D0ThPgAABZs109oZ1iO/P88Y7VbiSLOSohu05dLMakjfTX77Pq3j8QngklrtBQDbTua7iIxou1crf/LZnTCob6V8/aGAAAUCbsn71hrY+63mtxGlV5osVGrZKjXSlGTYq9Qln5+2PTo527rT7LI2PO9KdPz0xc5zfVd+qYflYqYESYbDD30UMl12pQUtrkMWtlxwbLvlS+HyuhP+qSS86k+X9gLMaIiSYr5dM8ejxI7tdTI96t81K+2AaGljGPJhnwy/9x0jpv51WBc0QhutjsZab2UVEwkNL1aViofNwXgZNPVdV2bE47Onen7LffnU92OTuWuid278+BKbW4ogLDwkZOdgAXyr/Rw6p0W4zT5NRyItl2ivaNPYqDWTjSFgr1XJCdhPzi8AHD8d6DmclJ4Rqa//w2V7x8ic6VR2e2ltrwo8oYdKGlQ9oaYF4GpsSwy1vhfGiaAMoLUS19L+qSDkzxlD6yx9mkz0vKXaDWFJSGSaVwHjgenKk6/wt6nHgWshLfg0oXqNQDleWoJIYPKJzx/5YiZ0hcPrzey51gD5WVgOawhhvMbSDMP4yaCmI4wgHcAGR/QgUxrECL9v4fgqmA2tNhlyv+JaC9BFXOsGwwciA+DxUDol8owFyGSmHY6e6/HOUGYVQHCMT/GBVBwbue9bI4nSPB3rLWEL30GYFAHhqBQCAQiP9FD41AIBAIBOJfBK0UQyAQCAQCeWgEAoFAIBDIQyMQCAQCgTw0AoFAIBAI5KERCAQCgUAeGoFAIBAIBPLQCAQCgUAgkIdGIBAIBAJ5aAQCgUAgEMhDIxAIBAKBPDQCgUAgEAjkoREIBAKBQB4agUAgEAgE8tAIBAKBQCCQh0YgEAgEYjjzf/2UiAJzQ15XAAAAAElFTkSuQmCC;" vertex="1" parent="1">
                    <mxGeometry x="210" y="420" width="651" height="270" as="geometry"/>
                </mxCell>
                <mxCell id="3" value="" style="curved=1;endArrow=classic;html=1;exitX=0.785;exitY=0.589;exitDx=0;exitDy=0;exitPerimeter=0;strokeWidth=4;" parent="1" source="7" edge="1">
                    <mxGeometry width="50" height="50" relative="1" as="geometry">
                        <mxPoint x="719.8989999999999" y="590.144" as="sourcePoint"/>
                        <mxPoint x="290" y="420" as="targetPoint"/>
                        <Array as="points">
                            <mxPoint x="750" y="610"/>
                            <mxPoint x="840" y="555"/>
                            <mxPoint x="800" y="380"/>
                            <mxPoint x="690" y="310"/>
                            <mxPoint x="540" y="300"/>
                            <mxPoint x="440" y="300"/>
                            <mxPoint x="290" y="330"/>
                        </Array>
                    </mxGeometry>
                </mxCell>
                <mxCell id="4" value="" style="curved=1;endArrow=classic;html=1;strokeWidth=4;exitX=0.829;exitY=0.811;exitDx=0;exitDy=0;exitPerimeter=0;" parent="1" source="7" edge="1">
                    <mxGeometry width="50" height="50" relative="1" as="geometry">
                        <mxPoint x="748.8339999999998" y="665.1199999999999" as="sourcePoint"/>
                        <mxPoint x="280" y="420" as="targetPoint"/>
                        <Array as="points">
                            <mxPoint x="780" y="850"/>
                            <mxPoint x="140" y="820"/>
                            <mxPoint x="50" y="400"/>
                            <mxPoint x="260" y="240"/>
                        </Array>
                    </mxGeometry>
                </mxCell>
                <mxCell id="6" value="" style="curved=1;endArrow=classic;html=1;strokeWidth=4;exitX=0.76;exitY=0.948;exitDx=0;exitDy=0;exitPerimeter=0;entryX=0.093;entryY=0;entryDx=0;entryDy=0;entryPerimeter=0;" parent="1" source="7" edge="1">
                    <mxGeometry width="50" height="50" relative="1" as="geometry">
                        <mxPoint x="699.9659999999999" y="722.848" as="sourcePoint"/>
                        <mxPoint x="269.799" y="424" as="targetPoint"/>
                        <Array as="points">
                            <mxPoint x="720" y="820"/>
                            <mxPoint x="180" y="740"/>
                            <mxPoint x="140" y="520"/>
                            <mxPoint x="210" y="300"/>
                        </Array>
                    </mxGeometry>
                </mxCell>
            </root>
        </mxGraphModel>
    </diagram>
</mxfile>